G04 #@! TF.FileFunction,Legend,Top*
%FSLAX46Y46*%
G04 Gerber Fmt 4.6, Leading zero omitted, Abs format (unit mm)*
G04 Created by KiCad (PCBNEW 4.0.5+dfsg1-4) date Wed Oct 25 15:58:38 2017*
%MOMM*%
%LPD*%
G01*
G04 APERTURE LIST*
%ADD10C,0.100000*%
%ADD11C,0.150000*%
G04 APERTURE END LIST*
D10*
D11*
X46914560Y-33093160D02*
X51454560Y-33093160D01*
X53184560Y-29093160D02*
G75*
G03X53184560Y-29093160I-4000000J0D01*
G01*
X51465037Y-33087196D02*
G75*
G03X46914560Y-33093160I-2280477J3994036D01*
G01*
X63723520Y-64922400D02*
X68803520Y-64922400D01*
X68803520Y-64922400D02*
X68803520Y-67462400D01*
X68803520Y-67462400D02*
X63723520Y-67462400D01*
X63723520Y-67462400D02*
X63723520Y-64922400D01*
X74071480Y-59344560D02*
X79151480Y-59344560D01*
X79151480Y-59344560D02*
X79151480Y-61884560D01*
X79151480Y-61884560D02*
X74071480Y-61884560D01*
X74071480Y-61884560D02*
X74071480Y-59344560D01*
X49733960Y-33093160D02*
X54273960Y-33093160D01*
X56003960Y-29093160D02*
G75*
G03X56003960Y-29093160I-4000000J0D01*
G01*
X54284437Y-33087196D02*
G75*
G03X49733960Y-33093160I-2280477J3994036D01*
G01*
X43801800Y-46415200D02*
X43801800Y-41875200D01*
X43801800Y-44145200D02*
G75*
G03X43801800Y-44145200I-4000000J0D01*
G01*
X43795836Y-41864723D02*
G75*
G03X43801800Y-46415200I-3994036J-2280477D01*
G01*
X92888560Y-33108400D02*
X97428560Y-33108400D01*
X99158560Y-29108400D02*
G75*
G03X99158560Y-29108400I-4000000J0D01*
G01*
X97439037Y-33102436D02*
G75*
G03X92888560Y-33108400I-2280477J3994036D01*
G01*
X96200720Y-33149040D02*
X100740720Y-33149040D01*
X102470720Y-29149040D02*
G75*
G03X102470720Y-29149040I-4000000J0D01*
G01*
X100751197Y-33143076D02*
G75*
G03X96200720Y-33149040I-2280477J3994036D01*
G01*
X99248720Y-33128720D02*
X103788720Y-33128720D01*
X105518720Y-29128720D02*
G75*
G03X105518720Y-29128720I-4000000J0D01*
G01*
X103799197Y-33122756D02*
G75*
G03X99248720Y-33128720I-2280477J3994036D01*
G01*
X75774040Y-33103320D02*
X80314040Y-33103320D01*
X82044040Y-29103320D02*
G75*
G03X82044040Y-29103320I-4000000J0D01*
G01*
X80324517Y-33097356D02*
G75*
G03X75774040Y-33103320I-2280477J3994036D01*
G01*
X78852520Y-33103320D02*
X83392520Y-33103320D01*
X85122520Y-29103320D02*
G75*
G03X85122520Y-29103320I-4000000J0D01*
G01*
X83402997Y-33097356D02*
G75*
G03X78852520Y-33103320I-2280477J3994036D01*
G01*
X82068160Y-33118560D02*
X86608160Y-33118560D01*
X88338160Y-29118560D02*
G75*
G03X88338160Y-29118560I-4000000J0D01*
G01*
X86618637Y-33112596D02*
G75*
G03X82068160Y-33118560I-2280477J3994036D01*
G01*
X61052200Y-33133800D02*
X65592200Y-33133800D01*
X67322200Y-29133800D02*
G75*
G03X67322200Y-29133800I-4000000J0D01*
G01*
X65602677Y-33127836D02*
G75*
G03X61052200Y-33133800I-2280477J3994036D01*
G01*
X66904360Y-33088080D02*
X71444360Y-33088080D01*
X73174360Y-29088080D02*
G75*
G03X73174360Y-29088080I-4000000J0D01*
G01*
X71454837Y-33082116D02*
G75*
G03X66904360Y-33088080I-2280477J3994036D01*
G01*
X63978280Y-33103320D02*
X68518280Y-33103320D01*
X70248280Y-29103320D02*
G75*
G03X70248280Y-29103320I-4000000J0D01*
G01*
X68528757Y-33097356D02*
G75*
G03X63978280Y-33103320I-2280477J3994036D01*
G01*
X73746360Y-64627760D02*
X73746360Y-62087760D01*
X73746360Y-62087760D02*
X66126360Y-62087760D01*
X66126360Y-62087760D02*
X66126360Y-64627760D01*
X66126360Y-64627760D02*
X73746360Y-64627760D01*
X82712560Y-58745120D02*
X82712560Y-56205120D01*
X82712560Y-56205120D02*
X75092560Y-56205120D01*
X75092560Y-56205120D02*
X75092560Y-58745120D01*
X75092560Y-58745120D02*
X82712560Y-58745120D01*
X49424080Y-40532960D02*
G75*
G03X48224080Y-41732960I1000000J-2200000D01*
G01*
X51424079Y-40532960D02*
G75*
G02X52624080Y-41732960I-999999J-2200000D01*
G01*
X48236385Y-43729950D02*
G75*
G03X48724080Y-44432960I2187695J996990D01*
G01*
X52611775Y-43729950D02*
G75*
G02X52124080Y-44432960I-2187695J996990D01*
G01*
X48724080Y-44432960D02*
X52124080Y-44432960D01*
X97262440Y-40827600D02*
G75*
G03X96062440Y-42027600I1000000J-2200000D01*
G01*
X99262439Y-40827600D02*
G75*
G02X100462440Y-42027600I-999999J-2200000D01*
G01*
X96074745Y-44024590D02*
G75*
G03X96562440Y-44727600I2187695J996990D01*
G01*
X100450135Y-44024590D02*
G75*
G02X99962440Y-44727600I-2187695J996990D01*
G01*
X96562440Y-44727600D02*
X99962440Y-44727600D01*
X79883760Y-40659960D02*
G75*
G03X78683760Y-41859960I1000000J-2200000D01*
G01*
X81883759Y-40659960D02*
G75*
G02X83083760Y-41859960I-999999J-2200000D01*
G01*
X78696065Y-43856950D02*
G75*
G03X79183760Y-44559960I2187695J996990D01*
G01*
X83071455Y-43856950D02*
G75*
G02X82583760Y-44559960I-2187695J996990D01*
G01*
X79183760Y-44559960D02*
X82583760Y-44559960D01*
X65187320Y-40827600D02*
G75*
G03X63987320Y-42027600I1000000J-2200000D01*
G01*
X67187319Y-40827600D02*
G75*
G02X68387320Y-42027600I-999999J-2200000D01*
G01*
X63999625Y-44024590D02*
G75*
G03X64487320Y-44727600I2187695J996990D01*
G01*
X68375015Y-44024590D02*
G75*
G02X67887320Y-44727600I-2187695J996990D01*
G01*
X64487320Y-44727600D02*
X67887320Y-44727600D01*
X49257640Y-48132240D02*
X49257640Y-46132240D01*
X51407640Y-46132240D02*
X51407640Y-48132240D01*
X44076040Y-30626560D02*
X44076040Y-28626560D01*
X46226040Y-28626560D02*
X46226040Y-30626560D01*
X42912720Y-37266120D02*
X42912720Y-35266120D01*
X45062720Y-35266120D02*
X45062720Y-37266120D01*
X41149960Y-30667200D02*
X41149960Y-28667200D01*
X43299960Y-28667200D02*
X43299960Y-30667200D01*
X97192520Y-48416720D02*
X97192520Y-46416720D01*
X99342520Y-46416720D02*
X99342520Y-48416720D01*
X89511560Y-30413200D02*
X89511560Y-28413200D01*
X91661560Y-28413200D02*
X91661560Y-30413200D01*
X89674120Y-37210240D02*
X89674120Y-35210240D01*
X91824120Y-35210240D02*
X91824120Y-37210240D01*
X79895120Y-48162720D02*
X79895120Y-46162720D01*
X82045120Y-46162720D02*
X82045120Y-48162720D01*
X72656120Y-30641800D02*
X72656120Y-28641800D01*
X74806120Y-28641800D02*
X74806120Y-30641800D01*
X73189520Y-37322000D02*
X73189520Y-35322000D01*
X75339520Y-35322000D02*
X75339520Y-37322000D01*
X65031040Y-48665640D02*
X65031040Y-46665640D01*
X67181040Y-46665640D02*
X67181040Y-48665640D01*
X57741240Y-30662120D02*
X57741240Y-28662120D01*
X59891240Y-28662120D02*
X59891240Y-30662120D01*
X57751400Y-36925760D02*
X57751400Y-34925760D01*
X59901400Y-34925760D02*
X59901400Y-36925760D01*
X107990640Y-52339240D02*
X107990640Y-70119240D01*
X107990640Y-70119240D02*
X69890640Y-70119240D01*
X69890640Y-70119240D02*
X69890640Y-52339240D01*
X106720640Y-52339240D02*
X69890640Y-52339240D01*
X106720640Y-52339240D02*
X107990640Y-52339240D01*
X55509160Y-38750240D02*
X55509160Y-33670240D01*
X55509160Y-33670240D02*
X45349160Y-33670240D01*
X45349160Y-33670240D02*
X45349160Y-38750240D01*
X45349160Y-38750240D02*
X47889160Y-38750240D01*
X47889160Y-38750240D02*
X55509160Y-38750240D01*
X87674960Y-65065000D02*
G75*
G03X88874960Y-63865000I-1000000J2200000D01*
G01*
X85674961Y-65065000D02*
G75*
G02X84474960Y-63865000I999999J2200000D01*
G01*
X88862655Y-61868010D02*
G75*
G03X88374960Y-61165000I-2187695J-996990D01*
G01*
X84487265Y-61868010D02*
G75*
G02X84974960Y-61165000I2187695J-996990D01*
G01*
X88374960Y-61165000D02*
X84974960Y-61165000D01*
X103454200Y-38973760D02*
X103454200Y-33893760D01*
X103454200Y-33893760D02*
X93294200Y-33893760D01*
X93294200Y-33893760D02*
X93294200Y-38973760D01*
X93294200Y-38973760D02*
X95834200Y-38973760D01*
X95834200Y-38973760D02*
X103454200Y-38973760D01*
X42560240Y-69230240D02*
X36210240Y-69230240D01*
X36210240Y-69230240D02*
X36210240Y-53990240D01*
X36210240Y-53990240D02*
X42560240Y-53990240D01*
X42560240Y-53990240D02*
X42560240Y-56530240D01*
X42560240Y-56530240D02*
X37480240Y-56530240D01*
X37480240Y-56530240D02*
X37480240Y-60340240D01*
X37480240Y-60340240D02*
X42560240Y-60340240D01*
X42560240Y-60340240D02*
X42560240Y-62880240D01*
X42560240Y-62880240D02*
X37480240Y-62880240D01*
X37480240Y-62880240D02*
X37480240Y-66690240D01*
X37480240Y-66690240D02*
X42560240Y-66690240D01*
X42560240Y-66690240D02*
X42560240Y-69230240D01*
X43830240Y-70500240D02*
X43830240Y-52720240D01*
X34940240Y-70500240D02*
X34940240Y-52720240D01*
X62880240Y-70500240D02*
X62880240Y-52720240D01*
X47640240Y-70500240D02*
X34940240Y-70500240D01*
X34940240Y-52720240D02*
X47640240Y-52720240D01*
X47640240Y-52720240D02*
X62880240Y-52720240D01*
X62880240Y-70500240D02*
X47640240Y-70500240D01*
X86187280Y-39029640D02*
X86187280Y-33949640D01*
X86187280Y-33949640D02*
X76027280Y-33949640D01*
X76027280Y-33949640D02*
X76027280Y-39029640D01*
X76027280Y-39029640D02*
X78567280Y-39029640D01*
X78567280Y-39029640D02*
X86187280Y-39029640D01*
X71043800Y-38973760D02*
X71043800Y-33893760D01*
X71043800Y-33893760D02*
X60883800Y-33893760D01*
X60883800Y-33893760D02*
X60883800Y-38973760D01*
X60883800Y-38973760D02*
X63423800Y-38973760D01*
X63423800Y-38973760D02*
X71043800Y-38973760D01*
X44077665Y-25572981D02*
X44077665Y-24572981D01*
X44315760Y-24572981D01*
X44458618Y-24620600D01*
X44553856Y-24715838D01*
X44601475Y-24811076D01*
X44649094Y-25001552D01*
X44649094Y-25144410D01*
X44601475Y-25334886D01*
X44553856Y-25430124D01*
X44458618Y-25525362D01*
X44315760Y-25572981D01*
X44077665Y-25572981D01*
X45601475Y-25572981D02*
X45030046Y-25572981D01*
X45315760Y-25572981D02*
X45315760Y-24572981D01*
X45220522Y-24715838D01*
X45125284Y-24811076D01*
X45030046Y-24858695D01*
X65858759Y-68660971D02*
X66001616Y-68708590D01*
X66049235Y-68756210D01*
X66096854Y-68851448D01*
X66096854Y-68994305D01*
X66049235Y-69089543D01*
X66001616Y-69137162D01*
X65906378Y-69184781D01*
X65525425Y-69184781D01*
X65525425Y-68184781D01*
X65858759Y-68184781D01*
X65953997Y-68232400D01*
X66001616Y-68280019D01*
X66049235Y-68375257D01*
X66049235Y-68470495D01*
X66001616Y-68565733D01*
X65953997Y-68613352D01*
X65858759Y-68660971D01*
X65525425Y-68660971D01*
X67049235Y-69184781D02*
X66477806Y-69184781D01*
X66763520Y-69184781D02*
X66763520Y-68184781D01*
X66668282Y-68327638D01*
X66573044Y-68422876D01*
X66477806Y-68470495D01*
X76206719Y-63083131D02*
X76349576Y-63130750D01*
X76397195Y-63178370D01*
X76444814Y-63273608D01*
X76444814Y-63416465D01*
X76397195Y-63511703D01*
X76349576Y-63559322D01*
X76254338Y-63606941D01*
X75873385Y-63606941D01*
X75873385Y-62606941D01*
X76206719Y-62606941D01*
X76301957Y-62654560D01*
X76349576Y-62702179D01*
X76397195Y-62797417D01*
X76397195Y-62892655D01*
X76349576Y-62987893D01*
X76301957Y-63035512D01*
X76206719Y-63083131D01*
X75873385Y-63083131D01*
X76825766Y-62702179D02*
X76873385Y-62654560D01*
X76968623Y-62606941D01*
X77206719Y-62606941D01*
X77301957Y-62654560D01*
X77349576Y-62702179D01*
X77397195Y-62797417D01*
X77397195Y-62892655D01*
X77349576Y-63035512D01*
X76778147Y-63606941D01*
X77397195Y-63606941D01*
X55228265Y-25486621D02*
X55228265Y-24486621D01*
X55466360Y-24486621D01*
X55609218Y-24534240D01*
X55704456Y-24629478D01*
X55752075Y-24724716D01*
X55799694Y-24915192D01*
X55799694Y-25058050D01*
X55752075Y-25248526D01*
X55704456Y-25343764D01*
X55609218Y-25439002D01*
X55466360Y-25486621D01*
X55228265Y-25486621D01*
X56180646Y-24581859D02*
X56228265Y-24534240D01*
X56323503Y-24486621D01*
X56561599Y-24486621D01*
X56656837Y-24534240D01*
X56704456Y-24581859D01*
X56752075Y-24677097D01*
X56752075Y-24772335D01*
X56704456Y-24915192D01*
X56133027Y-25486621D01*
X56752075Y-25486621D01*
X38833705Y-50097581D02*
X38833705Y-49097581D01*
X39071800Y-49097581D01*
X39214658Y-49145200D01*
X39309896Y-49240438D01*
X39357515Y-49335676D01*
X39405134Y-49526152D01*
X39405134Y-49669010D01*
X39357515Y-49859486D01*
X39309896Y-49954724D01*
X39214658Y-50049962D01*
X39071800Y-50097581D01*
X38833705Y-50097581D01*
X39738467Y-49097581D02*
X40357515Y-49097581D01*
X40024181Y-49478533D01*
X40167039Y-49478533D01*
X40262277Y-49526152D01*
X40309896Y-49573771D01*
X40357515Y-49669010D01*
X40357515Y-49907105D01*
X40309896Y-50002343D01*
X40262277Y-50049962D01*
X40167039Y-50097581D01*
X39881324Y-50097581D01*
X39786086Y-50049962D01*
X39738467Y-50002343D01*
X92733905Y-25852381D02*
X92733905Y-24852381D01*
X92972000Y-24852381D01*
X93114858Y-24900000D01*
X93210096Y-24995238D01*
X93257715Y-25090476D01*
X93305334Y-25280952D01*
X93305334Y-25423810D01*
X93257715Y-25614286D01*
X93210096Y-25709524D01*
X93114858Y-25804762D01*
X92972000Y-25852381D01*
X92733905Y-25852381D01*
X94162477Y-25185714D02*
X94162477Y-25852381D01*
X93924381Y-24804762D02*
X93686286Y-25519048D01*
X94305334Y-25519048D01*
X96289905Y-25852381D02*
X96289905Y-24852381D01*
X96528000Y-24852381D01*
X96670858Y-24900000D01*
X96766096Y-24995238D01*
X96813715Y-25090476D01*
X96861334Y-25280952D01*
X96861334Y-25423810D01*
X96813715Y-25614286D01*
X96766096Y-25709524D01*
X96670858Y-25804762D01*
X96528000Y-25852381D01*
X96289905Y-25852381D01*
X97766096Y-24852381D02*
X97289905Y-24852381D01*
X97242286Y-25328571D01*
X97289905Y-25280952D01*
X97385143Y-25233333D01*
X97623239Y-25233333D01*
X97718477Y-25280952D01*
X97766096Y-25328571D01*
X97813715Y-25423810D01*
X97813715Y-25661905D01*
X97766096Y-25757143D01*
X97718477Y-25804762D01*
X97623239Y-25852381D01*
X97385143Y-25852381D01*
X97289905Y-25804762D01*
X97242286Y-25757143D01*
X100861905Y-25852381D02*
X100861905Y-24852381D01*
X101100000Y-24852381D01*
X101242858Y-24900000D01*
X101338096Y-24995238D01*
X101385715Y-25090476D01*
X101433334Y-25280952D01*
X101433334Y-25423810D01*
X101385715Y-25614286D01*
X101338096Y-25709524D01*
X101242858Y-25804762D01*
X101100000Y-25852381D01*
X100861905Y-25852381D01*
X102290477Y-24852381D02*
X102100000Y-24852381D01*
X102004762Y-24900000D01*
X101957143Y-24947619D01*
X101861905Y-25090476D01*
X101814286Y-25280952D01*
X101814286Y-25661905D01*
X101861905Y-25757143D01*
X101909524Y-25804762D01*
X102004762Y-25852381D01*
X102195239Y-25852381D01*
X102290477Y-25804762D01*
X102338096Y-25757143D01*
X102385715Y-25661905D01*
X102385715Y-25423810D01*
X102338096Y-25328571D01*
X102290477Y-25280952D01*
X102195239Y-25233333D01*
X102004762Y-25233333D01*
X101909524Y-25280952D01*
X101861905Y-25328571D01*
X101814286Y-25423810D01*
X76477905Y-25852381D02*
X76477905Y-24852381D01*
X76716000Y-24852381D01*
X76858858Y-24900000D01*
X76954096Y-24995238D01*
X77001715Y-25090476D01*
X77049334Y-25280952D01*
X77049334Y-25423810D01*
X77001715Y-25614286D01*
X76954096Y-25709524D01*
X76858858Y-25804762D01*
X76716000Y-25852381D01*
X76477905Y-25852381D01*
X77382667Y-24852381D02*
X78049334Y-24852381D01*
X77620762Y-25852381D01*
X80033905Y-25852381D02*
X80033905Y-24852381D01*
X80272000Y-24852381D01*
X80414858Y-24900000D01*
X80510096Y-24995238D01*
X80557715Y-25090476D01*
X80605334Y-25280952D01*
X80605334Y-25423810D01*
X80557715Y-25614286D01*
X80510096Y-25709524D01*
X80414858Y-25804762D01*
X80272000Y-25852381D01*
X80033905Y-25852381D01*
X81176762Y-25280952D02*
X81081524Y-25233333D01*
X81033905Y-25185714D01*
X80986286Y-25090476D01*
X80986286Y-25042857D01*
X81033905Y-24947619D01*
X81081524Y-24900000D01*
X81176762Y-24852381D01*
X81367239Y-24852381D01*
X81462477Y-24900000D01*
X81510096Y-24947619D01*
X81557715Y-25042857D01*
X81557715Y-25090476D01*
X81510096Y-25185714D01*
X81462477Y-25233333D01*
X81367239Y-25280952D01*
X81176762Y-25280952D01*
X81081524Y-25328571D01*
X81033905Y-25376190D01*
X80986286Y-25471429D01*
X80986286Y-25661905D01*
X81033905Y-25757143D01*
X81081524Y-25804762D01*
X81176762Y-25852381D01*
X81367239Y-25852381D01*
X81462477Y-25804762D01*
X81510096Y-25757143D01*
X81557715Y-25661905D01*
X81557715Y-25471429D01*
X81510096Y-25376190D01*
X81462477Y-25328571D01*
X81367239Y-25280952D01*
X83589905Y-25852381D02*
X83589905Y-24852381D01*
X83828000Y-24852381D01*
X83970858Y-24900000D01*
X84066096Y-24995238D01*
X84113715Y-25090476D01*
X84161334Y-25280952D01*
X84161334Y-25423810D01*
X84113715Y-25614286D01*
X84066096Y-25709524D01*
X83970858Y-25804762D01*
X83828000Y-25852381D01*
X83589905Y-25852381D01*
X84637524Y-25852381D02*
X84828000Y-25852381D01*
X84923239Y-25804762D01*
X84970858Y-25757143D01*
X85066096Y-25614286D01*
X85113715Y-25423810D01*
X85113715Y-25042857D01*
X85066096Y-24947619D01*
X85018477Y-24900000D01*
X84923239Y-24852381D01*
X84732762Y-24852381D01*
X84637524Y-24900000D01*
X84589905Y-24947619D01*
X84542286Y-25042857D01*
X84542286Y-25280952D01*
X84589905Y-25376190D01*
X84637524Y-25423810D01*
X84732762Y-25471429D01*
X84923239Y-25471429D01*
X85018477Y-25423810D01*
X85066096Y-25376190D01*
X85113715Y-25280952D01*
X59745714Y-25852381D02*
X59745714Y-24852381D01*
X59983809Y-24852381D01*
X60126667Y-24900000D01*
X60221905Y-24995238D01*
X60269524Y-25090476D01*
X60317143Y-25280952D01*
X60317143Y-25423810D01*
X60269524Y-25614286D01*
X60221905Y-25709524D01*
X60126667Y-25804762D01*
X59983809Y-25852381D01*
X59745714Y-25852381D01*
X61269524Y-25852381D02*
X60698095Y-25852381D01*
X60983809Y-25852381D02*
X60983809Y-24852381D01*
X60888571Y-24995238D01*
X60793333Y-25090476D01*
X60698095Y-25138095D01*
X61888571Y-24852381D02*
X61983810Y-24852381D01*
X62079048Y-24900000D01*
X62126667Y-24947619D01*
X62174286Y-25042857D01*
X62221905Y-25233333D01*
X62221905Y-25471429D01*
X62174286Y-25661905D01*
X62126667Y-25757143D01*
X62079048Y-25804762D01*
X61983810Y-25852381D01*
X61888571Y-25852381D01*
X61793333Y-25804762D01*
X61745714Y-25757143D01*
X61698095Y-25661905D01*
X61650476Y-25471429D01*
X61650476Y-25233333D01*
X61698095Y-25042857D01*
X61745714Y-24947619D01*
X61793333Y-24900000D01*
X61888571Y-24852381D01*
X63809714Y-25852381D02*
X63809714Y-24852381D01*
X64047809Y-24852381D01*
X64190667Y-24900000D01*
X64285905Y-24995238D01*
X64333524Y-25090476D01*
X64381143Y-25280952D01*
X64381143Y-25423810D01*
X64333524Y-25614286D01*
X64285905Y-25709524D01*
X64190667Y-25804762D01*
X64047809Y-25852381D01*
X63809714Y-25852381D01*
X65333524Y-25852381D02*
X64762095Y-25852381D01*
X65047809Y-25852381D02*
X65047809Y-24852381D01*
X64952571Y-24995238D01*
X64857333Y-25090476D01*
X64762095Y-25138095D01*
X66285905Y-25852381D02*
X65714476Y-25852381D01*
X66000190Y-25852381D02*
X66000190Y-24852381D01*
X65904952Y-24995238D01*
X65809714Y-25090476D01*
X65714476Y-25138095D01*
X68381714Y-25852381D02*
X68381714Y-24852381D01*
X68619809Y-24852381D01*
X68762667Y-24900000D01*
X68857905Y-24995238D01*
X68905524Y-25090476D01*
X68953143Y-25280952D01*
X68953143Y-25423810D01*
X68905524Y-25614286D01*
X68857905Y-25709524D01*
X68762667Y-25804762D01*
X68619809Y-25852381D01*
X68381714Y-25852381D01*
X69905524Y-25852381D02*
X69334095Y-25852381D01*
X69619809Y-25852381D02*
X69619809Y-24852381D01*
X69524571Y-24995238D01*
X69429333Y-25090476D01*
X69334095Y-25138095D01*
X70286476Y-24947619D02*
X70334095Y-24900000D01*
X70429333Y-24852381D01*
X70667429Y-24852381D01*
X70762667Y-24900000D01*
X70810286Y-24947619D01*
X70857905Y-25042857D01*
X70857905Y-25138095D01*
X70810286Y-25280952D01*
X70238857Y-25852381D01*
X70857905Y-25852381D01*
X68460169Y-61270141D02*
X68460169Y-60270141D01*
X68841122Y-60270141D01*
X68936360Y-60317760D01*
X68983979Y-60365379D01*
X69031598Y-60460617D01*
X69031598Y-60603474D01*
X68983979Y-60698712D01*
X68936360Y-60746331D01*
X68841122Y-60793950D01*
X68460169Y-60793950D01*
X69603026Y-61270141D02*
X69507788Y-61222522D01*
X69460169Y-61174903D01*
X69412550Y-61079665D01*
X69412550Y-60793950D01*
X69460169Y-60698712D01*
X69507788Y-60651093D01*
X69603026Y-60603474D01*
X69745884Y-60603474D01*
X69841122Y-60651093D01*
X69888741Y-60698712D01*
X69936360Y-60793950D01*
X69936360Y-61079665D01*
X69888741Y-61174903D01*
X69841122Y-61222522D01*
X69745884Y-61270141D01*
X69603026Y-61270141D01*
X70222074Y-60603474D02*
X70603026Y-60603474D01*
X70364931Y-60270141D02*
X70364931Y-61127284D01*
X70412550Y-61222522D01*
X70507788Y-61270141D01*
X70603026Y-61270141D01*
X71460170Y-61270141D02*
X70888741Y-61270141D01*
X71174455Y-61270141D02*
X71174455Y-60270141D01*
X71079217Y-60412998D01*
X70983979Y-60508236D01*
X70888741Y-60555855D01*
X77426369Y-55387501D02*
X77426369Y-54387501D01*
X77807322Y-54387501D01*
X77902560Y-54435120D01*
X77950179Y-54482739D01*
X77997798Y-54577977D01*
X77997798Y-54720834D01*
X77950179Y-54816072D01*
X77902560Y-54863691D01*
X77807322Y-54911310D01*
X77426369Y-54911310D01*
X78569226Y-55387501D02*
X78473988Y-55339882D01*
X78426369Y-55292263D01*
X78378750Y-55197025D01*
X78378750Y-54911310D01*
X78426369Y-54816072D01*
X78473988Y-54768453D01*
X78569226Y-54720834D01*
X78712084Y-54720834D01*
X78807322Y-54768453D01*
X78854941Y-54816072D01*
X78902560Y-54911310D01*
X78902560Y-55197025D01*
X78854941Y-55292263D01*
X78807322Y-55339882D01*
X78712084Y-55387501D01*
X78569226Y-55387501D01*
X79188274Y-54720834D02*
X79569226Y-54720834D01*
X79331131Y-54387501D02*
X79331131Y-55244644D01*
X79378750Y-55339882D01*
X79473988Y-55387501D01*
X79569226Y-55387501D01*
X79854941Y-54482739D02*
X79902560Y-54435120D01*
X79997798Y-54387501D01*
X80235894Y-54387501D01*
X80331132Y-54435120D01*
X80378751Y-54482739D01*
X80426370Y-54577977D01*
X80426370Y-54673215D01*
X80378751Y-54816072D01*
X79807322Y-55387501D01*
X80426370Y-55387501D01*
X47788842Y-38280579D02*
X47693604Y-38232960D01*
X47598366Y-38137722D01*
X47455509Y-37994865D01*
X47360270Y-37947246D01*
X47265032Y-37947246D01*
X47312651Y-38185341D02*
X47217413Y-38137722D01*
X47122175Y-38042484D01*
X47074556Y-37852008D01*
X47074556Y-37518674D01*
X47122175Y-37328198D01*
X47217413Y-37232960D01*
X47312651Y-37185341D01*
X47503128Y-37185341D01*
X47598366Y-37232960D01*
X47693604Y-37328198D01*
X47741223Y-37518674D01*
X47741223Y-37852008D01*
X47693604Y-38042484D01*
X47598366Y-38137722D01*
X47503128Y-38185341D01*
X47312651Y-38185341D01*
X48693604Y-38185341D02*
X48122175Y-38185341D01*
X48407889Y-38185341D02*
X48407889Y-37185341D01*
X48312651Y-37328198D01*
X48217413Y-37423436D01*
X48122175Y-37471055D01*
X98456762Y-35091619D02*
X98361524Y-35044000D01*
X98266286Y-34948762D01*
X98123429Y-34805905D01*
X98028190Y-34758286D01*
X97932952Y-34758286D01*
X97980571Y-34996381D02*
X97885333Y-34948762D01*
X97790095Y-34853524D01*
X97742476Y-34663048D01*
X97742476Y-34329714D01*
X97790095Y-34139238D01*
X97885333Y-34044000D01*
X97980571Y-33996381D01*
X98171048Y-33996381D01*
X98266286Y-34044000D01*
X98361524Y-34139238D01*
X98409143Y-34329714D01*
X98409143Y-34663048D01*
X98361524Y-34853524D01*
X98266286Y-34948762D01*
X98171048Y-34996381D01*
X97980571Y-34996381D01*
X98790095Y-34091619D02*
X98837714Y-34044000D01*
X98932952Y-33996381D01*
X99171048Y-33996381D01*
X99266286Y-34044000D01*
X99313905Y-34091619D01*
X99361524Y-34186857D01*
X99361524Y-34282095D01*
X99313905Y-34424952D01*
X98742476Y-34996381D01*
X99361524Y-34996381D01*
X80676762Y-35091619D02*
X80581524Y-35044000D01*
X80486286Y-34948762D01*
X80343429Y-34805905D01*
X80248190Y-34758286D01*
X80152952Y-34758286D01*
X80200571Y-34996381D02*
X80105333Y-34948762D01*
X80010095Y-34853524D01*
X79962476Y-34663048D01*
X79962476Y-34329714D01*
X80010095Y-34139238D01*
X80105333Y-34044000D01*
X80200571Y-33996381D01*
X80391048Y-33996381D01*
X80486286Y-34044000D01*
X80581524Y-34139238D01*
X80629143Y-34329714D01*
X80629143Y-34663048D01*
X80581524Y-34853524D01*
X80486286Y-34948762D01*
X80391048Y-34996381D01*
X80200571Y-34996381D01*
X80962476Y-33996381D02*
X81581524Y-33996381D01*
X81248190Y-34377333D01*
X81391048Y-34377333D01*
X81486286Y-34424952D01*
X81533905Y-34472571D01*
X81581524Y-34567810D01*
X81581524Y-34805905D01*
X81533905Y-34901143D01*
X81486286Y-34948762D01*
X81391048Y-34996381D01*
X81105333Y-34996381D01*
X81010095Y-34948762D01*
X80962476Y-34901143D01*
X65944762Y-35091619D02*
X65849524Y-35044000D01*
X65754286Y-34948762D01*
X65611429Y-34805905D01*
X65516190Y-34758286D01*
X65420952Y-34758286D01*
X65468571Y-34996381D02*
X65373333Y-34948762D01*
X65278095Y-34853524D01*
X65230476Y-34663048D01*
X65230476Y-34329714D01*
X65278095Y-34139238D01*
X65373333Y-34044000D01*
X65468571Y-33996381D01*
X65659048Y-33996381D01*
X65754286Y-34044000D01*
X65849524Y-34139238D01*
X65897143Y-34329714D01*
X65897143Y-34663048D01*
X65849524Y-34853524D01*
X65754286Y-34948762D01*
X65659048Y-34996381D01*
X65468571Y-34996381D01*
X66754286Y-34329714D02*
X66754286Y-34996381D01*
X66516190Y-33948762D02*
X66278095Y-34663048D01*
X66897143Y-34663048D01*
X50054214Y-50744381D02*
X49720880Y-50268190D01*
X49482785Y-50744381D02*
X49482785Y-49744381D01*
X49863738Y-49744381D01*
X49958976Y-49792000D01*
X50006595Y-49839619D01*
X50054214Y-49934857D01*
X50054214Y-50077714D01*
X50006595Y-50172952D01*
X49958976Y-50220571D01*
X49863738Y-50268190D01*
X49482785Y-50268190D01*
X51006595Y-50744381D02*
X50435166Y-50744381D01*
X50720880Y-50744381D02*
X50720880Y-49744381D01*
X50625642Y-49887238D01*
X50530404Y-49982476D01*
X50435166Y-50030095D01*
X44649094Y-33198061D02*
X44315760Y-32721870D01*
X44077665Y-33198061D02*
X44077665Y-32198061D01*
X44458618Y-32198061D01*
X44553856Y-32245680D01*
X44601475Y-32293299D01*
X44649094Y-32388537D01*
X44649094Y-32531394D01*
X44601475Y-32626632D01*
X44553856Y-32674251D01*
X44458618Y-32721870D01*
X44077665Y-32721870D01*
X45030046Y-32293299D02*
X45077665Y-32245680D01*
X45172903Y-32198061D01*
X45410999Y-32198061D01*
X45506237Y-32245680D01*
X45553856Y-32293299D01*
X45601475Y-32388537D01*
X45601475Y-32483775D01*
X45553856Y-32626632D01*
X44982427Y-33198061D01*
X45601475Y-33198061D01*
X43612774Y-39812221D02*
X43279440Y-39336030D01*
X43041345Y-39812221D02*
X43041345Y-38812221D01*
X43422298Y-38812221D01*
X43517536Y-38859840D01*
X43565155Y-38907459D01*
X43612774Y-39002697D01*
X43612774Y-39145554D01*
X43565155Y-39240792D01*
X43517536Y-39288411D01*
X43422298Y-39336030D01*
X43041345Y-39336030D01*
X43946107Y-38812221D02*
X44565155Y-38812221D01*
X44231821Y-39193173D01*
X44374679Y-39193173D01*
X44469917Y-39240792D01*
X44517536Y-39288411D01*
X44565155Y-39383650D01*
X44565155Y-39621745D01*
X44517536Y-39716983D01*
X44469917Y-39764602D01*
X44374679Y-39812221D01*
X44088964Y-39812221D01*
X43993726Y-39764602D01*
X43946107Y-39716983D01*
X42053214Y-33172661D02*
X41719880Y-32696470D01*
X41481785Y-33172661D02*
X41481785Y-32172661D01*
X41862738Y-32172661D01*
X41957976Y-32220280D01*
X42005595Y-32267899D01*
X42053214Y-32363137D01*
X42053214Y-32505994D01*
X42005595Y-32601232D01*
X41957976Y-32648851D01*
X41862738Y-32696470D01*
X41481785Y-32696470D01*
X42910357Y-32505994D02*
X42910357Y-33172661D01*
X42672261Y-32125042D02*
X42434166Y-32839328D01*
X43053214Y-32839328D01*
X98243094Y-51028861D02*
X97909760Y-50552670D01*
X97671665Y-51028861D02*
X97671665Y-50028861D01*
X98052618Y-50028861D01*
X98147856Y-50076480D01*
X98195475Y-50124099D01*
X98243094Y-50219337D01*
X98243094Y-50362194D01*
X98195475Y-50457432D01*
X98147856Y-50505051D01*
X98052618Y-50552670D01*
X97671665Y-50552670D01*
X99147856Y-50028861D02*
X98671665Y-50028861D01*
X98624046Y-50505051D01*
X98671665Y-50457432D01*
X98766903Y-50409813D01*
X99004999Y-50409813D01*
X99100237Y-50457432D01*
X99147856Y-50505051D01*
X99195475Y-50600290D01*
X99195475Y-50838385D01*
X99147856Y-50933623D01*
X99100237Y-50981242D01*
X99004999Y-51028861D01*
X98766903Y-51028861D01*
X98671665Y-50981242D01*
X98624046Y-50933623D01*
X90257334Y-32964381D02*
X89924000Y-32488190D01*
X89685905Y-32964381D02*
X89685905Y-31964381D01*
X90066858Y-31964381D01*
X90162096Y-32012000D01*
X90209715Y-32059619D01*
X90257334Y-32154857D01*
X90257334Y-32297714D01*
X90209715Y-32392952D01*
X90162096Y-32440571D01*
X90066858Y-32488190D01*
X89685905Y-32488190D01*
X91114477Y-31964381D02*
X90924000Y-31964381D01*
X90828762Y-32012000D01*
X90781143Y-32059619D01*
X90685905Y-32202476D01*
X90638286Y-32392952D01*
X90638286Y-32773905D01*
X90685905Y-32869143D01*
X90733524Y-32916762D01*
X90828762Y-32964381D01*
X91019239Y-32964381D01*
X91114477Y-32916762D01*
X91162096Y-32869143D01*
X91209715Y-32773905D01*
X91209715Y-32535810D01*
X91162096Y-32440571D01*
X91114477Y-32392952D01*
X91019239Y-32345333D01*
X90828762Y-32345333D01*
X90733524Y-32392952D01*
X90685905Y-32440571D01*
X90638286Y-32535810D01*
X90257334Y-40076381D02*
X89924000Y-39600190D01*
X89685905Y-40076381D02*
X89685905Y-39076381D01*
X90066858Y-39076381D01*
X90162096Y-39124000D01*
X90209715Y-39171619D01*
X90257334Y-39266857D01*
X90257334Y-39409714D01*
X90209715Y-39504952D01*
X90162096Y-39552571D01*
X90066858Y-39600190D01*
X89685905Y-39600190D01*
X90590667Y-39076381D02*
X91257334Y-39076381D01*
X90828762Y-40076381D01*
X80803454Y-50886621D02*
X80470120Y-50410430D01*
X80232025Y-50886621D02*
X80232025Y-49886621D01*
X80612978Y-49886621D01*
X80708216Y-49934240D01*
X80755835Y-49981859D01*
X80803454Y-50077097D01*
X80803454Y-50219954D01*
X80755835Y-50315192D01*
X80708216Y-50362811D01*
X80612978Y-50410430D01*
X80232025Y-50410430D01*
X81374882Y-50315192D02*
X81279644Y-50267573D01*
X81232025Y-50219954D01*
X81184406Y-50124716D01*
X81184406Y-50077097D01*
X81232025Y-49981859D01*
X81279644Y-49934240D01*
X81374882Y-49886621D01*
X81565359Y-49886621D01*
X81660597Y-49934240D01*
X81708216Y-49981859D01*
X81755835Y-50077097D01*
X81755835Y-50124716D01*
X81708216Y-50219954D01*
X81660597Y-50267573D01*
X81565359Y-50315192D01*
X81374882Y-50315192D01*
X81279644Y-50362811D01*
X81232025Y-50410430D01*
X81184406Y-50505669D01*
X81184406Y-50696145D01*
X81232025Y-50791383D01*
X81279644Y-50839002D01*
X81374882Y-50886621D01*
X81565359Y-50886621D01*
X81660597Y-50839002D01*
X81708216Y-50791383D01*
X81755835Y-50696145D01*
X81755835Y-50505669D01*
X81708216Y-50410430D01*
X81660597Y-50362811D01*
X81565359Y-50315192D01*
X73493334Y-33472381D02*
X73160000Y-32996190D01*
X72921905Y-33472381D02*
X72921905Y-32472381D01*
X73302858Y-32472381D01*
X73398096Y-32520000D01*
X73445715Y-32567619D01*
X73493334Y-32662857D01*
X73493334Y-32805714D01*
X73445715Y-32900952D01*
X73398096Y-32948571D01*
X73302858Y-32996190D01*
X72921905Y-32996190D01*
X73969524Y-33472381D02*
X74160000Y-33472381D01*
X74255239Y-33424762D01*
X74302858Y-33377143D01*
X74398096Y-33234286D01*
X74445715Y-33043810D01*
X74445715Y-32662857D01*
X74398096Y-32567619D01*
X74350477Y-32520000D01*
X74255239Y-32472381D01*
X74064762Y-32472381D01*
X73969524Y-32520000D01*
X73921905Y-32567619D01*
X73874286Y-32662857D01*
X73874286Y-32900952D01*
X73921905Y-32996190D01*
X73969524Y-33043810D01*
X74064762Y-33091429D01*
X74255239Y-33091429D01*
X74350477Y-33043810D01*
X74398096Y-32996190D01*
X74445715Y-32900952D01*
X73525143Y-40076381D02*
X73191809Y-39600190D01*
X72953714Y-40076381D02*
X72953714Y-39076381D01*
X73334667Y-39076381D01*
X73429905Y-39124000D01*
X73477524Y-39171619D01*
X73525143Y-39266857D01*
X73525143Y-39409714D01*
X73477524Y-39504952D01*
X73429905Y-39552571D01*
X73334667Y-39600190D01*
X72953714Y-39600190D01*
X74477524Y-40076381D02*
X73906095Y-40076381D01*
X74191809Y-40076381D02*
X74191809Y-39076381D01*
X74096571Y-39219238D01*
X74001333Y-39314476D01*
X73906095Y-39362095D01*
X75096571Y-39076381D02*
X75191810Y-39076381D01*
X75287048Y-39124000D01*
X75334667Y-39171619D01*
X75382286Y-39266857D01*
X75429905Y-39457333D01*
X75429905Y-39695429D01*
X75382286Y-39885905D01*
X75334667Y-39981143D01*
X75287048Y-40028762D01*
X75191810Y-40076381D01*
X75096571Y-40076381D01*
X75001333Y-40028762D01*
X74953714Y-39981143D01*
X74906095Y-39885905D01*
X74858476Y-39695429D01*
X74858476Y-39457333D01*
X74906095Y-39266857D01*
X74953714Y-39171619D01*
X75001333Y-39124000D01*
X75096571Y-39076381D01*
X65549543Y-51191421D02*
X65216209Y-50715230D01*
X64978114Y-51191421D02*
X64978114Y-50191421D01*
X65359067Y-50191421D01*
X65454305Y-50239040D01*
X65501924Y-50286659D01*
X65549543Y-50381897D01*
X65549543Y-50524754D01*
X65501924Y-50619992D01*
X65454305Y-50667611D01*
X65359067Y-50715230D01*
X64978114Y-50715230D01*
X66501924Y-51191421D02*
X65930495Y-51191421D01*
X66216209Y-51191421D02*
X66216209Y-50191421D01*
X66120971Y-50334278D01*
X66025733Y-50429516D01*
X65930495Y-50477135D01*
X67454305Y-51191421D02*
X66882876Y-51191421D01*
X67168590Y-51191421D02*
X67168590Y-50191421D01*
X67073352Y-50334278D01*
X66978114Y-50429516D01*
X66882876Y-50477135D01*
X58285143Y-33472381D02*
X57951809Y-32996190D01*
X57713714Y-33472381D02*
X57713714Y-32472381D01*
X58094667Y-32472381D01*
X58189905Y-32520000D01*
X58237524Y-32567619D01*
X58285143Y-32662857D01*
X58285143Y-32805714D01*
X58237524Y-32900952D01*
X58189905Y-32948571D01*
X58094667Y-32996190D01*
X57713714Y-32996190D01*
X59237524Y-33472381D02*
X58666095Y-33472381D01*
X58951809Y-33472381D02*
X58951809Y-32472381D01*
X58856571Y-32615238D01*
X58761333Y-32710476D01*
X58666095Y-32758095D01*
X59618476Y-32567619D02*
X59666095Y-32520000D01*
X59761333Y-32472381D01*
X59999429Y-32472381D01*
X60094667Y-32520000D01*
X60142286Y-32567619D01*
X60189905Y-32662857D01*
X60189905Y-32758095D01*
X60142286Y-32900952D01*
X59570857Y-33472381D01*
X60189905Y-33472381D01*
X58285143Y-40076381D02*
X57951809Y-39600190D01*
X57713714Y-40076381D02*
X57713714Y-39076381D01*
X58094667Y-39076381D01*
X58189905Y-39124000D01*
X58237524Y-39171619D01*
X58285143Y-39266857D01*
X58285143Y-39409714D01*
X58237524Y-39504952D01*
X58189905Y-39552571D01*
X58094667Y-39600190D01*
X57713714Y-39600190D01*
X59237524Y-40076381D02*
X58666095Y-40076381D01*
X58951809Y-40076381D02*
X58951809Y-39076381D01*
X58856571Y-39219238D01*
X58761333Y-39314476D01*
X58666095Y-39362095D01*
X59570857Y-39076381D02*
X60189905Y-39076381D01*
X59856571Y-39457333D01*
X59999429Y-39457333D01*
X60094667Y-39504952D01*
X60142286Y-39552571D01*
X60189905Y-39647810D01*
X60189905Y-39885905D01*
X60142286Y-39981143D01*
X60094667Y-40028762D01*
X59999429Y-40076381D01*
X59713714Y-40076381D01*
X59618476Y-40028762D01*
X59570857Y-39981143D01*
X68073021Y-63261145D02*
X68882545Y-63261145D01*
X68977783Y-63213526D01*
X69025402Y-63165907D01*
X69073021Y-63070669D01*
X69073021Y-62880192D01*
X69025402Y-62784954D01*
X68977783Y-62737335D01*
X68882545Y-62689716D01*
X68073021Y-62689716D01*
X69073021Y-61689716D02*
X69073021Y-62261145D01*
X69073021Y-61975431D02*
X68073021Y-61975431D01*
X68215878Y-62070669D01*
X68311116Y-62165907D01*
X68358735Y-62261145D01*
X49093263Y-41743891D02*
X49093263Y-42958177D01*
X49164691Y-43101034D01*
X49236120Y-43172463D01*
X49378977Y-43243891D01*
X49664691Y-43243891D01*
X49807549Y-43172463D01*
X49878977Y-43101034D01*
X49950406Y-42958177D01*
X49950406Y-41743891D01*
X50593263Y-41886749D02*
X50664692Y-41815320D01*
X50807549Y-41743891D01*
X51164692Y-41743891D01*
X51307549Y-41815320D01*
X51378978Y-41886749D01*
X51450406Y-42029606D01*
X51450406Y-42172463D01*
X51378978Y-42386749D01*
X50521835Y-43243891D01*
X51450406Y-43243891D01*
X88453055Y-67317381D02*
X88453055Y-68126905D01*
X88500674Y-68222143D01*
X88548293Y-68269762D01*
X88643531Y-68317381D01*
X88834008Y-68317381D01*
X88929246Y-68269762D01*
X88976865Y-68222143D01*
X89024484Y-68126905D01*
X89024484Y-67317381D01*
X89405436Y-67317381D02*
X90024484Y-67317381D01*
X89691150Y-67698333D01*
X89834008Y-67698333D01*
X89929246Y-67745952D01*
X89976865Y-67793571D01*
X90024484Y-67888810D01*
X90024484Y-68126905D01*
X89976865Y-68222143D01*
X89929246Y-68269762D01*
X89834008Y-68317381D01*
X89548293Y-68317381D01*
X89453055Y-68269762D01*
X89405436Y-68222143D01*
X97150063Y-42069011D02*
X97150063Y-43283297D01*
X97221491Y-43426154D01*
X97292920Y-43497583D01*
X97435777Y-43569011D01*
X97721491Y-43569011D01*
X97864349Y-43497583D01*
X97935777Y-43426154D01*
X98007206Y-43283297D01*
X98007206Y-42069011D01*
X99364349Y-42569011D02*
X99364349Y-43569011D01*
X99007206Y-41997583D02*
X98650063Y-43069011D01*
X99578635Y-43069011D01*
X63602621Y-62372145D02*
X64412145Y-62372145D01*
X64507383Y-62324526D01*
X64555002Y-62276907D01*
X64602621Y-62181669D01*
X64602621Y-61991192D01*
X64555002Y-61895954D01*
X64507383Y-61848335D01*
X64412145Y-61800716D01*
X63602621Y-61800716D01*
X63602621Y-60848335D02*
X63602621Y-61324526D01*
X64078811Y-61372145D01*
X64031192Y-61324526D01*
X63983573Y-61229288D01*
X63983573Y-60991192D01*
X64031192Y-60895954D01*
X64078811Y-60848335D01*
X64174050Y-60800716D01*
X64412145Y-60800716D01*
X64507383Y-60848335D01*
X64555002Y-60895954D01*
X64602621Y-60991192D01*
X64602621Y-61229288D01*
X64555002Y-61324526D01*
X64507383Y-61372145D01*
X79883143Y-42124891D02*
X79883143Y-43339177D01*
X79954571Y-43482034D01*
X80026000Y-43553463D01*
X80168857Y-43624891D01*
X80454571Y-43624891D01*
X80597429Y-43553463D01*
X80668857Y-43482034D01*
X80740286Y-43339177D01*
X80740286Y-42124891D01*
X82097429Y-42124891D02*
X81811715Y-42124891D01*
X81668858Y-42196320D01*
X81597429Y-42267749D01*
X81454572Y-42482034D01*
X81383143Y-42767749D01*
X81383143Y-43339177D01*
X81454572Y-43482034D01*
X81526000Y-43553463D01*
X81668858Y-43624891D01*
X81954572Y-43624891D01*
X82097429Y-43553463D01*
X82168858Y-43482034D01*
X82240286Y-43339177D01*
X82240286Y-42982034D01*
X82168858Y-42839177D01*
X82097429Y-42767749D01*
X81954572Y-42696320D01*
X81668858Y-42696320D01*
X81526000Y-42767749D01*
X81454572Y-42839177D01*
X81383143Y-42982034D01*
X65049543Y-41982651D02*
X65049543Y-43196937D01*
X65120971Y-43339794D01*
X65192400Y-43411223D01*
X65335257Y-43482651D01*
X65620971Y-43482651D01*
X65763829Y-43411223D01*
X65835257Y-43339794D01*
X65906686Y-43196937D01*
X65906686Y-41982651D01*
X66478115Y-41982651D02*
X67478115Y-41982651D01*
X66835258Y-43482651D01*
X38142587Y-23592541D02*
X38142587Y-24306827D01*
X38094967Y-24449684D01*
X37999729Y-24544922D01*
X37856872Y-24592541D01*
X37761634Y-24592541D01*
X39142587Y-24592541D02*
X38571158Y-24592541D01*
X38856872Y-24592541D02*
X38856872Y-23592541D01*
X38761634Y-23735398D01*
X38666396Y-23830636D01*
X38571158Y-23878255D01*
X38738276Y-63628021D02*
X39404943Y-63628021D01*
X38738276Y-64628021D01*
X39404943Y-64628021D01*
X40309705Y-64628021D02*
X39738276Y-64628021D01*
X40023990Y-64628021D02*
X40023990Y-63628021D01*
X39928752Y-63770878D01*
X39833514Y-63866116D01*
X39738276Y-63913735D01*
X107435116Y-38177221D02*
X108101783Y-38177221D01*
X107435116Y-39177221D01*
X108101783Y-39177221D01*
X108435116Y-38272459D02*
X108482735Y-38224840D01*
X108577973Y-38177221D01*
X108816069Y-38177221D01*
X108911307Y-38224840D01*
X108958926Y-38272459D01*
X109006545Y-38367697D01*
X109006545Y-38462935D01*
X108958926Y-38605792D01*
X108387497Y-39177221D01*
X109006545Y-39177221D01*
M02*
