G04 #@! TF.FileFunction,Soldermask,Top*
%FSLAX46Y46*%
G04 Gerber Fmt 4.6, Leading zero omitted, Abs format (unit mm)*
G04 Created by KiCad (PCBNEW 4.0.5+dfsg1-4) date Wed Oct 18 18:42:54 2017*
%MOMM*%
%LPD*%
G01*
G04 APERTURE LIST*
%ADD10C,0.100000*%
%ADD11C,1.924000*%
%ADD12C,2.200000*%
%ADD13R,2.200000X2.200000*%
%ADD14R,3.400000X3.400000*%
%ADD15C,3.400000*%
%ADD16R,2.100000X1.300000*%
%ADD17C,2.300000*%
G04 APERTURE END LIST*
D10*
D11*
X209804000Y-55372000D03*
X207264000Y-55372000D03*
X204724000Y-55372000D03*
X202184000Y-55372000D03*
X199644000Y-55372000D03*
X197104000Y-55372000D03*
X194564000Y-55372000D03*
X192024000Y-55372000D03*
X189484000Y-55372000D03*
X186944000Y-55372000D03*
X184404000Y-55372000D03*
X181864000Y-55372000D03*
X179324000Y-55372000D03*
X176784000Y-55372000D03*
X174244000Y-55372000D03*
X209804000Y-65532000D03*
X207264000Y-65532000D03*
X204724000Y-65532000D03*
X202184000Y-65532000D03*
X199644000Y-65532000D03*
X197104000Y-65532000D03*
X194564000Y-65532000D03*
X192024000Y-65532000D03*
X189484000Y-65532000D03*
X186944000Y-65532000D03*
X184404000Y-65532000D03*
X181864000Y-65532000D03*
X179324000Y-65532000D03*
X176784000Y-65532000D03*
X174244000Y-65532000D03*
D12*
X162052000Y-28448000D03*
D13*
X162052000Y-30988000D03*
D12*
X202184000Y-28448000D03*
D13*
X202184000Y-30988000D03*
D12*
X188468000Y-28448000D03*
D13*
X188468000Y-30988000D03*
D12*
X175260000Y-28448000D03*
D13*
X175260000Y-30988000D03*
D12*
X147828000Y-42672000D03*
D13*
X145288000Y-42672000D03*
D14*
X146304000Y-28956000D03*
D15*
X146304000Y-34036000D03*
D11*
X162052000Y-42672000D03*
X164592000Y-45212000D03*
X159512000Y-45212000D03*
X202184000Y-42672000D03*
X204724000Y-45212000D03*
X199644000Y-45212000D03*
X188468000Y-42672000D03*
X191008000Y-45212000D03*
X185928000Y-45212000D03*
X175260000Y-42672000D03*
X177800000Y-45212000D03*
X172720000Y-45212000D03*
D16*
X162052000Y-48334000D03*
X162052000Y-51234000D03*
X155448000Y-29030000D03*
X155448000Y-31930000D03*
X154432000Y-42746000D03*
X154432000Y-45646000D03*
X202184000Y-48334000D03*
X202184000Y-51234000D03*
X195580000Y-29030000D03*
X195580000Y-31930000D03*
X195580000Y-42746000D03*
X195580000Y-45646000D03*
X188468000Y-48334000D03*
X188468000Y-51234000D03*
X181864000Y-29030000D03*
X181864000Y-31930000D03*
X182372000Y-42746000D03*
X182372000Y-45646000D03*
X175260000Y-48334000D03*
X175260000Y-51234000D03*
X168656000Y-29030000D03*
X168656000Y-31930000D03*
X169164000Y-43254000D03*
X169164000Y-46154000D03*
X151892000Y-29030000D03*
X151892000Y-31930000D03*
D17*
X159512000Y-38608000D03*
X162052000Y-38608000D03*
X164592000Y-38608000D03*
X199644000Y-38608000D03*
X202184000Y-38608000D03*
X204724000Y-38608000D03*
X185928000Y-38608000D03*
X188468000Y-38608000D03*
X191008000Y-38608000D03*
X172720000Y-38608000D03*
X175260000Y-38608000D03*
X177800000Y-38608000D03*
D11*
X155194000Y-70358000D03*
X157734000Y-70358000D03*
X160274000Y-70358000D03*
X162814000Y-70358000D03*
X165354000Y-70358000D03*
X167894000Y-70358000D03*
X155194000Y-53848000D03*
X157734000Y-53848000D03*
X160274000Y-53848000D03*
X162814000Y-53848000D03*
X165354000Y-53848000D03*
X167894000Y-53848000D03*
X202184000Y-72136000D03*
X199644000Y-69596000D03*
X204724000Y-69596000D03*
X171958000Y-70866000D03*
X174498000Y-70866000D03*
X185674000Y-70866000D03*
X188214000Y-70866000D03*
X177800000Y-70612000D03*
X180340000Y-70612000D03*
X182880000Y-70612000D03*
X191516000Y-70612000D03*
X194056000Y-70612000D03*
X196596000Y-70612000D03*
M02*
