G04 #@! TF.FileFunction,Copper,L2,Bot,Signal*
%FSLAX46Y46*%
G04 Gerber Fmt 4.6, Leading zero omitted, Abs format (unit mm)*
G04 Created by KiCad (PCBNEW 4.0.5+dfsg1-4) date Wed Oct 25 15:58:38 2017*
%MOMM*%
%LPD*%
G01*
G04 APERTURE LIST*
%ADD10C,0.100000*%
%ADD11C,0.300000*%
%ADD12C,1.800000*%
%ADD13R,1.800000X1.800000*%
%ADD14C,1.524000*%
%ADD15C,1.900000*%
%ADD16C,3.000000*%
%ADD17C,0.250000*%
%ADD18C,0.254000*%
G04 APERTURE END LIST*
D10*
D11*
X83080571Y-46647571D02*
X83794857Y-46647571D01*
X83794857Y-45147571D01*
X82009143Y-46576143D02*
X82152000Y-46647571D01*
X82437714Y-46647571D01*
X82580571Y-46576143D01*
X82652000Y-46433286D01*
X82652000Y-45861857D01*
X82580571Y-45719000D01*
X82437714Y-45647571D01*
X82152000Y-45647571D01*
X82009143Y-45719000D01*
X81937714Y-45861857D01*
X81937714Y-46004714D01*
X82652000Y-46147571D01*
X80652000Y-46647571D02*
X80652000Y-45147571D01*
X80652000Y-46576143D02*
X80794857Y-46647571D01*
X81080571Y-46647571D01*
X81223429Y-46576143D01*
X81294857Y-46504714D01*
X81366286Y-46361857D01*
X81366286Y-45933286D01*
X81294857Y-45790429D01*
X81223429Y-45719000D01*
X81080571Y-45647571D01*
X80794857Y-45647571D01*
X80652000Y-45719000D01*
X78580571Y-46647571D02*
X78723429Y-46576143D01*
X78794857Y-46433286D01*
X78794857Y-45147571D01*
X78009143Y-46647571D02*
X78009143Y-45647571D01*
X78009143Y-45147571D02*
X78080572Y-45219000D01*
X78009143Y-45290429D01*
X77937715Y-45219000D01*
X78009143Y-45147571D01*
X78009143Y-45290429D01*
X76652000Y-45647571D02*
X76652000Y-46861857D01*
X76723429Y-47004714D01*
X76794857Y-47076143D01*
X76937714Y-47147571D01*
X77152000Y-47147571D01*
X77294857Y-47076143D01*
X76652000Y-46576143D02*
X76794857Y-46647571D01*
X77080571Y-46647571D01*
X77223429Y-46576143D01*
X77294857Y-46504714D01*
X77366286Y-46361857D01*
X77366286Y-45933286D01*
X77294857Y-45790429D01*
X77223429Y-45719000D01*
X77080571Y-45647571D01*
X76794857Y-45647571D01*
X76652000Y-45719000D01*
X75937714Y-46647571D02*
X75937714Y-45147571D01*
X75294857Y-46647571D02*
X75294857Y-45861857D01*
X75366286Y-45719000D01*
X75509143Y-45647571D01*
X75723428Y-45647571D01*
X75866286Y-45719000D01*
X75937714Y-45790429D01*
X74794857Y-45647571D02*
X74223428Y-45647571D01*
X74580571Y-45147571D02*
X74580571Y-46433286D01*
X74509143Y-46576143D01*
X74366285Y-46647571D01*
X74223428Y-46647571D01*
X73152000Y-46576143D02*
X73294857Y-46647571D01*
X73580571Y-46647571D01*
X73723428Y-46576143D01*
X73794857Y-46433286D01*
X73794857Y-45861857D01*
X73723428Y-45719000D01*
X73580571Y-45647571D01*
X73294857Y-45647571D01*
X73152000Y-45719000D01*
X73080571Y-45861857D01*
X73080571Y-46004714D01*
X73794857Y-46147571D01*
X72437714Y-45647571D02*
X72437714Y-46647571D01*
X72437714Y-45790429D02*
X72366286Y-45719000D01*
X72223428Y-45647571D01*
X72009143Y-45647571D01*
X71866286Y-45719000D01*
X71794857Y-45861857D01*
X71794857Y-46647571D01*
X71080571Y-46647571D02*
X71080571Y-45647571D01*
X71080571Y-45147571D02*
X71152000Y-45219000D01*
X71080571Y-45290429D01*
X71009143Y-45219000D01*
X71080571Y-45147571D01*
X71080571Y-45290429D01*
X70366285Y-45647571D02*
X70366285Y-46647571D01*
X70366285Y-45790429D02*
X70294857Y-45719000D01*
X70151999Y-45647571D01*
X69937714Y-45647571D01*
X69794857Y-45719000D01*
X69723428Y-45861857D01*
X69723428Y-46647571D01*
X68366285Y-45647571D02*
X68366285Y-46861857D01*
X68437714Y-47004714D01*
X68509142Y-47076143D01*
X68651999Y-47147571D01*
X68866285Y-47147571D01*
X69009142Y-47076143D01*
X68366285Y-46576143D02*
X68509142Y-46647571D01*
X68794856Y-46647571D01*
X68937714Y-46576143D01*
X69009142Y-46504714D01*
X69080571Y-46361857D01*
X69080571Y-45933286D01*
X69009142Y-45790429D01*
X68937714Y-45719000D01*
X68794856Y-45647571D01*
X68509142Y-45647571D01*
X68366285Y-45719000D01*
X66651999Y-45647571D02*
X66294856Y-46647571D01*
X65937714Y-45647571D01*
X64580571Y-46647571D02*
X65437714Y-46647571D01*
X65009142Y-46647571D02*
X65009142Y-45147571D01*
X65151999Y-45361857D01*
X65294857Y-45504714D01*
X65437714Y-45576143D01*
X63937714Y-46504714D02*
X63866286Y-46576143D01*
X63937714Y-46647571D01*
X64009143Y-46576143D01*
X63937714Y-46504714D01*
X63937714Y-46647571D01*
X62437714Y-46647571D02*
X63294857Y-46647571D01*
X62866285Y-46647571D02*
X62866285Y-45147571D01*
X63009142Y-45361857D01*
X63152000Y-45504714D01*
X63294857Y-45576143D01*
X88009143Y-47697571D02*
X88009143Y-48769000D01*
X88080571Y-48983286D01*
X88223428Y-49126143D01*
X88437714Y-49197571D01*
X88580571Y-49197571D01*
X87080571Y-49197571D02*
X87223429Y-49126143D01*
X87294857Y-49054714D01*
X87366286Y-48911857D01*
X87366286Y-48483286D01*
X87294857Y-48340429D01*
X87223429Y-48269000D01*
X87080571Y-48197571D01*
X86866286Y-48197571D01*
X86723429Y-48269000D01*
X86652000Y-48340429D01*
X86580571Y-48483286D01*
X86580571Y-48911857D01*
X86652000Y-49054714D01*
X86723429Y-49126143D01*
X86866286Y-49197571D01*
X87080571Y-49197571D01*
X85937714Y-49197571D02*
X85937714Y-47697571D01*
X85294857Y-49197571D02*
X85294857Y-48411857D01*
X85366286Y-48269000D01*
X85509143Y-48197571D01*
X85723428Y-48197571D01*
X85866286Y-48269000D01*
X85937714Y-48340429D01*
X83937714Y-49197571D02*
X83937714Y-48411857D01*
X84009143Y-48269000D01*
X84152000Y-48197571D01*
X84437714Y-48197571D01*
X84580571Y-48269000D01*
X83937714Y-49126143D02*
X84080571Y-49197571D01*
X84437714Y-49197571D01*
X84580571Y-49126143D01*
X84652000Y-48983286D01*
X84652000Y-48840429D01*
X84580571Y-48697571D01*
X84437714Y-48626143D01*
X84080571Y-48626143D01*
X83937714Y-48554714D01*
X83223428Y-48197571D02*
X83223428Y-49197571D01*
X83223428Y-48340429D02*
X83152000Y-48269000D01*
X83009142Y-48197571D01*
X82794857Y-48197571D01*
X82652000Y-48269000D01*
X82580571Y-48411857D01*
X82580571Y-49197571D01*
X79580571Y-48197571D02*
X80723428Y-48626143D01*
X79580571Y-49054714D01*
X78866285Y-48197571D02*
X78866285Y-49483286D01*
X78937714Y-49626143D01*
X79080571Y-49697571D01*
X79151999Y-49697571D01*
X78866285Y-47697571D02*
X78937714Y-47769000D01*
X78866285Y-47840429D01*
X78794857Y-47769000D01*
X78866285Y-47697571D01*
X78866285Y-47840429D01*
X77937713Y-49197571D02*
X78080571Y-49126143D01*
X78151999Y-49054714D01*
X78223428Y-48911857D01*
X78223428Y-48483286D01*
X78151999Y-48340429D01*
X78080571Y-48269000D01*
X77937713Y-48197571D01*
X77723428Y-48197571D01*
X77580571Y-48269000D01*
X77509142Y-48340429D01*
X77437713Y-48483286D01*
X77437713Y-48911857D01*
X77509142Y-49054714D01*
X77580571Y-49126143D01*
X77723428Y-49197571D01*
X77937713Y-49197571D01*
X76794856Y-49197571D02*
X76794856Y-47697571D01*
X76151999Y-49197571D02*
X76151999Y-48411857D01*
X76223428Y-48269000D01*
X76366285Y-48197571D01*
X76580570Y-48197571D01*
X76723428Y-48269000D01*
X76794856Y-48340429D01*
X74794856Y-49197571D02*
X74794856Y-48411857D01*
X74866285Y-48269000D01*
X75009142Y-48197571D01*
X75294856Y-48197571D01*
X75437713Y-48269000D01*
X74794856Y-49126143D02*
X74937713Y-49197571D01*
X75294856Y-49197571D01*
X75437713Y-49126143D01*
X75509142Y-48983286D01*
X75509142Y-48840429D01*
X75437713Y-48697571D01*
X75294856Y-48626143D01*
X74937713Y-48626143D01*
X74794856Y-48554714D01*
X74080570Y-48197571D02*
X74080570Y-49197571D01*
X74080570Y-48340429D02*
X74009142Y-48269000D01*
X73866284Y-48197571D01*
X73651999Y-48197571D01*
X73509142Y-48269000D01*
X73437713Y-48411857D01*
X73437713Y-49197571D01*
X71794856Y-48483286D02*
X71866284Y-48411857D01*
X72009141Y-48340429D01*
X72151999Y-48340429D01*
X72294856Y-48411857D01*
X72366284Y-48483286D01*
X72437713Y-48626143D01*
X72437713Y-48769000D01*
X72366284Y-48911857D01*
X72294856Y-48983286D01*
X72151999Y-49054714D01*
X72009141Y-49054714D01*
X71866284Y-48983286D01*
X71794856Y-48911857D01*
X71794856Y-48340429D02*
X71794856Y-48911857D01*
X71723427Y-48983286D01*
X71651999Y-48983286D01*
X71509141Y-48911857D01*
X71437713Y-48769000D01*
X71437713Y-48411857D01*
X71580570Y-48197571D01*
X71794856Y-48054714D01*
X72080570Y-47983286D01*
X72366284Y-48054714D01*
X72580570Y-48197571D01*
X72723427Y-48411857D01*
X72794856Y-48697571D01*
X72723427Y-48983286D01*
X72580570Y-49197571D01*
X72366284Y-49340429D01*
X72080570Y-49411857D01*
X71794856Y-49340429D01*
X71580570Y-49197571D01*
X70223428Y-49126143D02*
X70366285Y-49197571D01*
X70651999Y-49197571D01*
X70794856Y-49126143D01*
X70866285Y-48983286D01*
X70866285Y-48411857D01*
X70794856Y-48269000D01*
X70651999Y-48197571D01*
X70366285Y-48197571D01*
X70223428Y-48269000D01*
X70151999Y-48411857D01*
X70151999Y-48554714D01*
X70866285Y-48697571D01*
X69651999Y-49197571D02*
X68866285Y-48197571D01*
X69651999Y-48197571D02*
X68866285Y-49197571D01*
X67651999Y-49126143D02*
X67794856Y-49197571D01*
X68080570Y-49197571D01*
X68223428Y-49126143D01*
X68294856Y-49054714D01*
X68366285Y-48911857D01*
X68366285Y-48483286D01*
X68294856Y-48340429D01*
X68223428Y-48269000D01*
X68080570Y-48197571D01*
X67794856Y-48197571D01*
X67651999Y-48269000D01*
X66794856Y-49197571D02*
X66937714Y-49126143D01*
X67009142Y-48983286D01*
X67009142Y-47697571D01*
X65580571Y-48197571D02*
X65580571Y-49197571D01*
X66223428Y-48197571D02*
X66223428Y-48983286D01*
X66152000Y-49126143D01*
X66009142Y-49197571D01*
X65794857Y-49197571D01*
X65652000Y-49126143D01*
X65580571Y-49054714D01*
X64223428Y-49197571D02*
X64223428Y-47697571D01*
X64223428Y-49126143D02*
X64366285Y-49197571D01*
X64651999Y-49197571D01*
X64794857Y-49126143D01*
X64866285Y-49054714D01*
X64937714Y-48911857D01*
X64937714Y-48483286D01*
X64866285Y-48340429D01*
X64794857Y-48269000D01*
X64651999Y-48197571D01*
X64366285Y-48197571D01*
X64223428Y-48269000D01*
X62937714Y-49126143D02*
X63080571Y-49197571D01*
X63366285Y-49197571D01*
X63509142Y-49126143D01*
X63580571Y-48983286D01*
X63580571Y-48411857D01*
X63509142Y-48269000D01*
X63366285Y-48197571D01*
X63080571Y-48197571D01*
X62937714Y-48269000D01*
X62866285Y-48411857D01*
X62866285Y-48554714D01*
X63580571Y-48697571D01*
X62223428Y-49054714D02*
X62152000Y-49126143D01*
X62223428Y-49197571D01*
X62294857Y-49126143D01*
X62223428Y-49054714D01*
X62223428Y-49197571D01*
X61580571Y-49126143D02*
X61437714Y-49197571D01*
X61151999Y-49197571D01*
X61009142Y-49126143D01*
X60937714Y-48983286D01*
X60937714Y-48911857D01*
X61009142Y-48769000D01*
X61151999Y-48697571D01*
X61366285Y-48697571D01*
X61509142Y-48626143D01*
X61580571Y-48483286D01*
X61580571Y-48411857D01*
X61509142Y-48269000D01*
X61366285Y-48197571D01*
X61151999Y-48197571D01*
X61009142Y-48269000D01*
X59723428Y-49126143D02*
X59866285Y-49197571D01*
X60151999Y-49197571D01*
X60294856Y-49126143D01*
X60366285Y-48983286D01*
X60366285Y-48411857D01*
X60294856Y-48269000D01*
X60151999Y-48197571D01*
X59866285Y-48197571D01*
X59723428Y-48269000D01*
X59651999Y-48411857D01*
X59651999Y-48554714D01*
X60366285Y-48697571D01*
X59009142Y-48197571D02*
X57866285Y-48626143D01*
X59009142Y-49054714D01*
D12*
X49184560Y-27823160D03*
D13*
X49184560Y-30363160D03*
D14*
X64993520Y-66192400D03*
X67533520Y-66192400D03*
X75341480Y-60614560D03*
X77881480Y-60614560D03*
D12*
X52003960Y-27823160D03*
D13*
X52003960Y-30363160D03*
D12*
X38531800Y-44145200D03*
D13*
X41071800Y-44145200D03*
D12*
X95158560Y-27838400D03*
D13*
X95158560Y-30378400D03*
D12*
X98470720Y-27879040D03*
D13*
X98470720Y-30419040D03*
D12*
X101518720Y-27858720D03*
D13*
X101518720Y-30398720D03*
D12*
X78044040Y-27833320D03*
D13*
X78044040Y-30373320D03*
D12*
X81122520Y-27833320D03*
D13*
X81122520Y-30373320D03*
D12*
X84338160Y-27848560D03*
D13*
X84338160Y-30388560D03*
D12*
X63322200Y-27863800D03*
D13*
X63322200Y-30403800D03*
D12*
X69174360Y-27818080D03*
D13*
X69174360Y-30358080D03*
D12*
X66248280Y-27833320D03*
D13*
X66248280Y-30373320D03*
D14*
X72476360Y-63357760D03*
X69936360Y-63357760D03*
X67396360Y-63357760D03*
X81442560Y-57475120D03*
X78902560Y-57475120D03*
X76362560Y-57475120D03*
X50424080Y-40192960D03*
X52964080Y-42732960D03*
X47884080Y-42732960D03*
X98262440Y-40487600D03*
X100802440Y-43027600D03*
X95722440Y-43027600D03*
X80883760Y-40319960D03*
X83423760Y-42859960D03*
X78343760Y-42859960D03*
X66187320Y-40487600D03*
X68727320Y-43027600D03*
X63647320Y-43027600D03*
X106720640Y-53609240D03*
X104180640Y-53609240D03*
X101640640Y-53609240D03*
X99100640Y-53609240D03*
X96560640Y-53609240D03*
X94020640Y-53609240D03*
X91480640Y-53609240D03*
X88940640Y-53609240D03*
X86400640Y-53609240D03*
X83860640Y-53609240D03*
X81320640Y-53609240D03*
X78780640Y-53609240D03*
X76240640Y-53609240D03*
X73700640Y-53609240D03*
X71160640Y-53609240D03*
X106720640Y-68849240D03*
X104180640Y-68849240D03*
X101640640Y-68849240D03*
X99100640Y-68849240D03*
X96560640Y-68849240D03*
X94020640Y-68849240D03*
X91480640Y-68849240D03*
X88940640Y-68849240D03*
X86400640Y-68849240D03*
X83860640Y-68849240D03*
X81320640Y-68849240D03*
X78780640Y-68849240D03*
X76240640Y-68849240D03*
X73700640Y-68849240D03*
X71160640Y-68849240D03*
D15*
X47889160Y-36210240D03*
X50429160Y-36210240D03*
X52969160Y-36210240D03*
D14*
X86674960Y-65405000D03*
X84134960Y-62865000D03*
X89214960Y-62865000D03*
D15*
X95834200Y-36433760D03*
X98374200Y-36433760D03*
X100914200Y-36433760D03*
D14*
X48910240Y-70500240D03*
X51450240Y-70500240D03*
X53990240Y-70500240D03*
X56530240Y-70500240D03*
X59070240Y-70500240D03*
X61610240Y-70500240D03*
X48910240Y-52720240D03*
X51450240Y-52720240D03*
X53990240Y-52720240D03*
X56530240Y-52720240D03*
X59070240Y-52720240D03*
X61610240Y-52720240D03*
D15*
X78567280Y-36489640D03*
X81107280Y-36489640D03*
X83647280Y-36489640D03*
X63423800Y-36433760D03*
X65963800Y-36433760D03*
X68503800Y-36433760D03*
D16*
X38562280Y-27076400D03*
X38562280Y-32156400D03*
D17*
X101518720Y-27858720D02*
X102306120Y-27858720D01*
X102306120Y-27858720D02*
X105272840Y-30825440D01*
X105272840Y-30825440D02*
X105272840Y-44124880D01*
X105272840Y-44124880D02*
X108320840Y-47172880D01*
X108320840Y-47172880D02*
X108320840Y-67249040D01*
X108320840Y-67249040D02*
X106720640Y-68849240D01*
X56530240Y-70500240D02*
X56530240Y-71790560D01*
X106720640Y-51689000D02*
X106720640Y-53609240D01*
X105618280Y-50586640D02*
X106720640Y-51689000D01*
X47955200Y-50586640D02*
X105618280Y-50586640D01*
X46741080Y-51800760D02*
X47955200Y-50586640D01*
X46741080Y-71292720D02*
X46741080Y-51800760D01*
X47381160Y-71932800D02*
X46741080Y-71292720D01*
X56388000Y-71932800D02*
X47381160Y-71932800D01*
X56530240Y-71790560D02*
X56388000Y-71932800D01*
X59070240Y-52720240D02*
X59070240Y-51382082D01*
X78780640Y-52181760D02*
X78780640Y-53609240D01*
X77866240Y-51267360D02*
X78780640Y-52181760D01*
X59184962Y-51267360D02*
X77866240Y-51267360D01*
X59070240Y-51382082D02*
X59184962Y-51267360D01*
X61610240Y-52720240D02*
X61610240Y-54488080D01*
X91480640Y-60492640D02*
X91480640Y-68849240D01*
X86756240Y-55768240D02*
X91480640Y-60492640D01*
X62890400Y-55768240D02*
X86756240Y-55768240D01*
X61610240Y-54488080D02*
X62890400Y-55768240D01*
D18*
G36*
X53259097Y-51497843D02*
X53189632Y-51740027D01*
X53990240Y-52540635D01*
X54790848Y-51740027D01*
X54721383Y-51497843D01*
X54297567Y-51346640D01*
X56196361Y-51346640D01*
X55739937Y-51535230D01*
X55346611Y-51927870D01*
X55266845Y-52119967D01*
X55212637Y-51989097D01*
X54970453Y-51919632D01*
X54169845Y-52720240D01*
X54970453Y-53520848D01*
X55212637Y-53451383D01*
X55262749Y-53310922D01*
X55345230Y-53510543D01*
X55737870Y-53903869D01*
X56251140Y-54116997D01*
X56806901Y-54117482D01*
X57320543Y-53905250D01*
X57713869Y-53512610D01*
X57800189Y-53304728D01*
X57885230Y-53510543D01*
X58277870Y-53903869D01*
X58791140Y-54116997D01*
X59346901Y-54117482D01*
X59860543Y-53905250D01*
X60253869Y-53512610D01*
X60340189Y-53304728D01*
X60425230Y-53510543D01*
X60817870Y-53903869D01*
X60850240Y-53917310D01*
X60850240Y-54488080D01*
X60908092Y-54778919D01*
X61072839Y-55025481D01*
X62352999Y-56305641D01*
X62599561Y-56470388D01*
X62890400Y-56528240D01*
X75333711Y-56528240D01*
X75178931Y-56682750D01*
X74965803Y-57196020D01*
X74965318Y-57751781D01*
X75177550Y-58265423D01*
X75570190Y-58658749D01*
X76083460Y-58871877D01*
X76639221Y-58872362D01*
X77152863Y-58660130D01*
X77546189Y-58267490D01*
X77632509Y-58059608D01*
X77717550Y-58265423D01*
X78110190Y-58658749D01*
X78623460Y-58871877D01*
X79179221Y-58872362D01*
X79692863Y-58660130D01*
X79898017Y-58455333D01*
X80641952Y-58455333D01*
X80711417Y-58697517D01*
X81234862Y-58884264D01*
X81789928Y-58856482D01*
X82173703Y-58697517D01*
X82243168Y-58455333D01*
X81442560Y-57654725D01*
X80641952Y-58455333D01*
X79898017Y-58455333D01*
X80086189Y-58267490D01*
X80165955Y-58075393D01*
X80220163Y-58206263D01*
X80462347Y-58275728D01*
X81262955Y-57475120D01*
X81248813Y-57460978D01*
X81428418Y-57281373D01*
X81442560Y-57295515D01*
X81456703Y-57281373D01*
X81636308Y-57460978D01*
X81622165Y-57475120D01*
X82422773Y-58275728D01*
X82664957Y-58206263D01*
X82851704Y-57682818D01*
X82823922Y-57127752D01*
X82664957Y-56743977D01*
X82422775Y-56674513D01*
X82537786Y-56559502D01*
X82506524Y-56528240D01*
X85293200Y-56528240D01*
X85293200Y-62115455D01*
X85115173Y-62064392D01*
X84314565Y-62865000D01*
X85115173Y-63665608D01*
X85293200Y-63614545D01*
X85293200Y-65089783D01*
X85278203Y-65125900D01*
X85277718Y-65681661D01*
X85293200Y-65719130D01*
X85293200Y-67980814D01*
X85217011Y-68056870D01*
X85130691Y-68264752D01*
X85045650Y-68058937D01*
X84653010Y-67665611D01*
X84139740Y-67452483D01*
X83583979Y-67451998D01*
X83070337Y-67664230D01*
X82677011Y-68056870D01*
X82590691Y-68264752D01*
X82505650Y-68058937D01*
X82113010Y-67665611D01*
X81599740Y-67452483D01*
X81043979Y-67451998D01*
X80530337Y-67664230D01*
X80137011Y-68056870D01*
X80050691Y-68264752D01*
X79965650Y-68058937D01*
X79573010Y-67665611D01*
X79059740Y-67452483D01*
X78503979Y-67451998D01*
X77990337Y-67664230D01*
X77597011Y-68056870D01*
X77510691Y-68264752D01*
X77425650Y-68058937D01*
X77033010Y-67665611D01*
X76519740Y-67452483D01*
X75963979Y-67451998D01*
X75450337Y-67664230D01*
X75057011Y-68056870D01*
X74977245Y-68248967D01*
X74923037Y-68118097D01*
X74680853Y-68048632D01*
X73880245Y-68849240D01*
X74680853Y-69649848D01*
X74923037Y-69580383D01*
X74973149Y-69439922D01*
X75055630Y-69639543D01*
X75448270Y-70032869D01*
X75961540Y-70245997D01*
X76517301Y-70246482D01*
X77030943Y-70034250D01*
X77424269Y-69641610D01*
X77510589Y-69433728D01*
X77595630Y-69639543D01*
X77988270Y-70032869D01*
X78501540Y-70245997D01*
X79057301Y-70246482D01*
X79570943Y-70034250D01*
X79964269Y-69641610D01*
X80050589Y-69433728D01*
X80135630Y-69639543D01*
X80528270Y-70032869D01*
X81041540Y-70245997D01*
X81597301Y-70246482D01*
X82110943Y-70034250D01*
X82504269Y-69641610D01*
X82590589Y-69433728D01*
X82675630Y-69639543D01*
X83068270Y-70032869D01*
X83581540Y-70245997D01*
X84137301Y-70246482D01*
X84650943Y-70034250D01*
X85044269Y-69641610D01*
X85130589Y-69433728D01*
X85215630Y-69639543D01*
X85293200Y-69717249D01*
X85293200Y-71389240D01*
X62697070Y-71389240D01*
X62793869Y-71292610D01*
X63006997Y-70779340D01*
X63007482Y-70223579D01*
X62795250Y-69709937D01*
X62402610Y-69316611D01*
X61943329Y-69125901D01*
X69763398Y-69125901D01*
X69975630Y-69639543D01*
X70368270Y-70032869D01*
X70881540Y-70245997D01*
X71437301Y-70246482D01*
X71950943Y-70034250D01*
X72156097Y-69829453D01*
X72900032Y-69829453D01*
X72969497Y-70071637D01*
X73492942Y-70258384D01*
X74048008Y-70230602D01*
X74431783Y-70071637D01*
X74501248Y-69829453D01*
X73700640Y-69028845D01*
X72900032Y-69829453D01*
X72156097Y-69829453D01*
X72344269Y-69641610D01*
X72424035Y-69449513D01*
X72478243Y-69580383D01*
X72720427Y-69649848D01*
X73521035Y-68849240D01*
X72720427Y-68048632D01*
X72478243Y-68118097D01*
X72428131Y-68258558D01*
X72345650Y-68058937D01*
X72156072Y-67869027D01*
X72900032Y-67869027D01*
X73700640Y-68669635D01*
X74501248Y-67869027D01*
X74431783Y-67626843D01*
X73908338Y-67440096D01*
X73353272Y-67467878D01*
X72969497Y-67626843D01*
X72900032Y-67869027D01*
X72156072Y-67869027D01*
X71953010Y-67665611D01*
X71439740Y-67452483D01*
X70883979Y-67451998D01*
X70370337Y-67664230D01*
X69977011Y-68056870D01*
X69763883Y-68570140D01*
X69763398Y-69125901D01*
X61943329Y-69125901D01*
X61889340Y-69103483D01*
X61333579Y-69102998D01*
X60819937Y-69315230D01*
X60426611Y-69707870D01*
X60340291Y-69915752D01*
X60255250Y-69709937D01*
X59862610Y-69316611D01*
X59349340Y-69103483D01*
X58793579Y-69102998D01*
X58279937Y-69315230D01*
X57886611Y-69707870D01*
X57800291Y-69915752D01*
X57715250Y-69709937D01*
X57322610Y-69316611D01*
X56809340Y-69103483D01*
X56253579Y-69102998D01*
X55739937Y-69315230D01*
X55346611Y-69707870D01*
X55260291Y-69915752D01*
X55175250Y-69709937D01*
X54782610Y-69316611D01*
X54269340Y-69103483D01*
X53713579Y-69102998D01*
X53199937Y-69315230D01*
X52821840Y-69692668D01*
X52821840Y-67172613D01*
X64192912Y-67172613D01*
X64262377Y-67414797D01*
X64785822Y-67601544D01*
X65340888Y-67573762D01*
X65724663Y-67414797D01*
X65794128Y-67172613D01*
X64993520Y-66372005D01*
X64192912Y-67172613D01*
X52821840Y-67172613D01*
X52821840Y-65984702D01*
X63584376Y-65984702D01*
X63612158Y-66539768D01*
X63771123Y-66923543D01*
X64013307Y-66993008D01*
X64813915Y-66192400D01*
X65173125Y-66192400D01*
X65973733Y-66993008D01*
X66215917Y-66923543D01*
X66266029Y-66783082D01*
X66348510Y-66982703D01*
X66741150Y-67376029D01*
X67254420Y-67589157D01*
X67810181Y-67589642D01*
X68323823Y-67377410D01*
X68717149Y-66984770D01*
X68930277Y-66471500D01*
X68930762Y-65915739D01*
X68718530Y-65402097D01*
X68325890Y-65008771D01*
X67812620Y-64795643D01*
X67256859Y-64795158D01*
X66743217Y-65007390D01*
X66349891Y-65400030D01*
X66270125Y-65592127D01*
X66215917Y-65461257D01*
X65973733Y-65391792D01*
X65173125Y-66192400D01*
X64813915Y-66192400D01*
X64013307Y-65391792D01*
X63771123Y-65461257D01*
X63584376Y-65984702D01*
X52821840Y-65984702D01*
X52821840Y-65212187D01*
X64192912Y-65212187D01*
X64993520Y-66012795D01*
X65794128Y-65212187D01*
X65724663Y-64970003D01*
X65201218Y-64783256D01*
X64646152Y-64811038D01*
X64262377Y-64970003D01*
X64192912Y-65212187D01*
X52821840Y-65212187D01*
X52821840Y-63634421D01*
X65999118Y-63634421D01*
X66211350Y-64148063D01*
X66603990Y-64541389D01*
X67117260Y-64754517D01*
X67673021Y-64755002D01*
X68186663Y-64542770D01*
X68579989Y-64150130D01*
X68666309Y-63942248D01*
X68751350Y-64148063D01*
X69143990Y-64541389D01*
X69657260Y-64754517D01*
X70213021Y-64755002D01*
X70726663Y-64542770D01*
X70931817Y-64337973D01*
X71675752Y-64337973D01*
X71745217Y-64580157D01*
X72268662Y-64766904D01*
X72823728Y-64739122D01*
X73207503Y-64580157D01*
X73276968Y-64337973D01*
X72476360Y-63537365D01*
X71675752Y-64337973D01*
X70931817Y-64337973D01*
X71119989Y-64150130D01*
X71199755Y-63958033D01*
X71253963Y-64088903D01*
X71496147Y-64158368D01*
X72296755Y-63357760D01*
X72655965Y-63357760D01*
X73456573Y-64158368D01*
X73698757Y-64088903D01*
X73785697Y-63845213D01*
X83334352Y-63845213D01*
X83403817Y-64087397D01*
X83927262Y-64274144D01*
X84482328Y-64246362D01*
X84866103Y-64087397D01*
X84935568Y-63845213D01*
X84134960Y-63044605D01*
X83334352Y-63845213D01*
X73785697Y-63845213D01*
X73885504Y-63565458D01*
X73857722Y-63010392D01*
X73711468Y-62657302D01*
X82725816Y-62657302D01*
X82753598Y-63212368D01*
X82912563Y-63596143D01*
X83154747Y-63665608D01*
X83955355Y-62865000D01*
X83154747Y-62064392D01*
X82912563Y-62133857D01*
X82725816Y-62657302D01*
X73711468Y-62657302D01*
X73698757Y-62626617D01*
X73456573Y-62557152D01*
X72655965Y-63357760D01*
X72296755Y-63357760D01*
X71496147Y-62557152D01*
X71253963Y-62626617D01*
X71203851Y-62767078D01*
X71121370Y-62567457D01*
X70931792Y-62377547D01*
X71675752Y-62377547D01*
X72476360Y-63178155D01*
X73276968Y-62377547D01*
X73207503Y-62135363D01*
X72684058Y-61948616D01*
X72128992Y-61976398D01*
X71745217Y-62135363D01*
X71675752Y-62377547D01*
X70931792Y-62377547D01*
X70728730Y-62174131D01*
X70215460Y-61961003D01*
X69659699Y-61960518D01*
X69146057Y-62172750D01*
X68752731Y-62565390D01*
X68666411Y-62773272D01*
X68581370Y-62567457D01*
X68188730Y-62174131D01*
X67675460Y-61961003D01*
X67119699Y-61960518D01*
X66606057Y-62172750D01*
X66212731Y-62565390D01*
X65999603Y-63078660D01*
X65999118Y-63634421D01*
X52821840Y-63634421D01*
X52821840Y-61594773D01*
X74540872Y-61594773D01*
X74610337Y-61836957D01*
X75133782Y-62023704D01*
X75688848Y-61995922D01*
X76072623Y-61836957D01*
X76142088Y-61594773D01*
X75341480Y-60794165D01*
X74540872Y-61594773D01*
X52821840Y-61594773D01*
X52821840Y-60406862D01*
X73932336Y-60406862D01*
X73960118Y-60961928D01*
X74119083Y-61345703D01*
X74361267Y-61415168D01*
X75161875Y-60614560D01*
X75521085Y-60614560D01*
X76321693Y-61415168D01*
X76563877Y-61345703D01*
X76613989Y-61205242D01*
X76696470Y-61404863D01*
X77089110Y-61798189D01*
X77602380Y-62011317D01*
X78158141Y-62011802D01*
X78465541Y-61884787D01*
X83334352Y-61884787D01*
X84134960Y-62685395D01*
X84935568Y-61884787D01*
X84866103Y-61642603D01*
X84342658Y-61455856D01*
X83787592Y-61483638D01*
X83403817Y-61642603D01*
X83334352Y-61884787D01*
X78465541Y-61884787D01*
X78671783Y-61799570D01*
X79065109Y-61406930D01*
X79278237Y-60893660D01*
X79278722Y-60337899D01*
X79066490Y-59824257D01*
X78673850Y-59430931D01*
X78160580Y-59217803D01*
X77604819Y-59217318D01*
X77091177Y-59429550D01*
X76697851Y-59822190D01*
X76618085Y-60014287D01*
X76563877Y-59883417D01*
X76321693Y-59813952D01*
X75521085Y-60614560D01*
X75161875Y-60614560D01*
X74361267Y-59813952D01*
X74119083Y-59883417D01*
X73932336Y-60406862D01*
X52821840Y-60406862D01*
X52821840Y-59634347D01*
X74540872Y-59634347D01*
X75341480Y-60434955D01*
X76142088Y-59634347D01*
X76072623Y-59392163D01*
X75549178Y-59205416D01*
X74994112Y-59233198D01*
X74610337Y-59392163D01*
X74540872Y-59634347D01*
X52821840Y-59634347D01*
X52821840Y-53700453D01*
X53189632Y-53700453D01*
X53259097Y-53942637D01*
X53782542Y-54129384D01*
X54337608Y-54101602D01*
X54721383Y-53942637D01*
X54790848Y-53700453D01*
X53990240Y-52899845D01*
X53189632Y-53700453D01*
X52821840Y-53700453D01*
X52821840Y-53466871D01*
X53010027Y-53520848D01*
X53810635Y-52720240D01*
X53010027Y-51919632D01*
X52821840Y-51973609D01*
X52821840Y-51346640D01*
X53624133Y-51346640D01*
X53259097Y-51497843D01*
X53259097Y-51497843D01*
G37*
X53259097Y-51497843D02*
X53189632Y-51740027D01*
X53990240Y-52540635D01*
X54790848Y-51740027D01*
X54721383Y-51497843D01*
X54297567Y-51346640D01*
X56196361Y-51346640D01*
X55739937Y-51535230D01*
X55346611Y-51927870D01*
X55266845Y-52119967D01*
X55212637Y-51989097D01*
X54970453Y-51919632D01*
X54169845Y-52720240D01*
X54970453Y-53520848D01*
X55212637Y-53451383D01*
X55262749Y-53310922D01*
X55345230Y-53510543D01*
X55737870Y-53903869D01*
X56251140Y-54116997D01*
X56806901Y-54117482D01*
X57320543Y-53905250D01*
X57713869Y-53512610D01*
X57800189Y-53304728D01*
X57885230Y-53510543D01*
X58277870Y-53903869D01*
X58791140Y-54116997D01*
X59346901Y-54117482D01*
X59860543Y-53905250D01*
X60253869Y-53512610D01*
X60340189Y-53304728D01*
X60425230Y-53510543D01*
X60817870Y-53903869D01*
X60850240Y-53917310D01*
X60850240Y-54488080D01*
X60908092Y-54778919D01*
X61072839Y-55025481D01*
X62352999Y-56305641D01*
X62599561Y-56470388D01*
X62890400Y-56528240D01*
X75333711Y-56528240D01*
X75178931Y-56682750D01*
X74965803Y-57196020D01*
X74965318Y-57751781D01*
X75177550Y-58265423D01*
X75570190Y-58658749D01*
X76083460Y-58871877D01*
X76639221Y-58872362D01*
X77152863Y-58660130D01*
X77546189Y-58267490D01*
X77632509Y-58059608D01*
X77717550Y-58265423D01*
X78110190Y-58658749D01*
X78623460Y-58871877D01*
X79179221Y-58872362D01*
X79692863Y-58660130D01*
X79898017Y-58455333D01*
X80641952Y-58455333D01*
X80711417Y-58697517D01*
X81234862Y-58884264D01*
X81789928Y-58856482D01*
X82173703Y-58697517D01*
X82243168Y-58455333D01*
X81442560Y-57654725D01*
X80641952Y-58455333D01*
X79898017Y-58455333D01*
X80086189Y-58267490D01*
X80165955Y-58075393D01*
X80220163Y-58206263D01*
X80462347Y-58275728D01*
X81262955Y-57475120D01*
X81248813Y-57460978D01*
X81428418Y-57281373D01*
X81442560Y-57295515D01*
X81456703Y-57281373D01*
X81636308Y-57460978D01*
X81622165Y-57475120D01*
X82422773Y-58275728D01*
X82664957Y-58206263D01*
X82851704Y-57682818D01*
X82823922Y-57127752D01*
X82664957Y-56743977D01*
X82422775Y-56674513D01*
X82537786Y-56559502D01*
X82506524Y-56528240D01*
X85293200Y-56528240D01*
X85293200Y-62115455D01*
X85115173Y-62064392D01*
X84314565Y-62865000D01*
X85115173Y-63665608D01*
X85293200Y-63614545D01*
X85293200Y-65089783D01*
X85278203Y-65125900D01*
X85277718Y-65681661D01*
X85293200Y-65719130D01*
X85293200Y-67980814D01*
X85217011Y-68056870D01*
X85130691Y-68264752D01*
X85045650Y-68058937D01*
X84653010Y-67665611D01*
X84139740Y-67452483D01*
X83583979Y-67451998D01*
X83070337Y-67664230D01*
X82677011Y-68056870D01*
X82590691Y-68264752D01*
X82505650Y-68058937D01*
X82113010Y-67665611D01*
X81599740Y-67452483D01*
X81043979Y-67451998D01*
X80530337Y-67664230D01*
X80137011Y-68056870D01*
X80050691Y-68264752D01*
X79965650Y-68058937D01*
X79573010Y-67665611D01*
X79059740Y-67452483D01*
X78503979Y-67451998D01*
X77990337Y-67664230D01*
X77597011Y-68056870D01*
X77510691Y-68264752D01*
X77425650Y-68058937D01*
X77033010Y-67665611D01*
X76519740Y-67452483D01*
X75963979Y-67451998D01*
X75450337Y-67664230D01*
X75057011Y-68056870D01*
X74977245Y-68248967D01*
X74923037Y-68118097D01*
X74680853Y-68048632D01*
X73880245Y-68849240D01*
X74680853Y-69649848D01*
X74923037Y-69580383D01*
X74973149Y-69439922D01*
X75055630Y-69639543D01*
X75448270Y-70032869D01*
X75961540Y-70245997D01*
X76517301Y-70246482D01*
X77030943Y-70034250D01*
X77424269Y-69641610D01*
X77510589Y-69433728D01*
X77595630Y-69639543D01*
X77988270Y-70032869D01*
X78501540Y-70245997D01*
X79057301Y-70246482D01*
X79570943Y-70034250D01*
X79964269Y-69641610D01*
X80050589Y-69433728D01*
X80135630Y-69639543D01*
X80528270Y-70032869D01*
X81041540Y-70245997D01*
X81597301Y-70246482D01*
X82110943Y-70034250D01*
X82504269Y-69641610D01*
X82590589Y-69433728D01*
X82675630Y-69639543D01*
X83068270Y-70032869D01*
X83581540Y-70245997D01*
X84137301Y-70246482D01*
X84650943Y-70034250D01*
X85044269Y-69641610D01*
X85130589Y-69433728D01*
X85215630Y-69639543D01*
X85293200Y-69717249D01*
X85293200Y-71389240D01*
X62697070Y-71389240D01*
X62793869Y-71292610D01*
X63006997Y-70779340D01*
X63007482Y-70223579D01*
X62795250Y-69709937D01*
X62402610Y-69316611D01*
X61943329Y-69125901D01*
X69763398Y-69125901D01*
X69975630Y-69639543D01*
X70368270Y-70032869D01*
X70881540Y-70245997D01*
X71437301Y-70246482D01*
X71950943Y-70034250D01*
X72156097Y-69829453D01*
X72900032Y-69829453D01*
X72969497Y-70071637D01*
X73492942Y-70258384D01*
X74048008Y-70230602D01*
X74431783Y-70071637D01*
X74501248Y-69829453D01*
X73700640Y-69028845D01*
X72900032Y-69829453D01*
X72156097Y-69829453D01*
X72344269Y-69641610D01*
X72424035Y-69449513D01*
X72478243Y-69580383D01*
X72720427Y-69649848D01*
X73521035Y-68849240D01*
X72720427Y-68048632D01*
X72478243Y-68118097D01*
X72428131Y-68258558D01*
X72345650Y-68058937D01*
X72156072Y-67869027D01*
X72900032Y-67869027D01*
X73700640Y-68669635D01*
X74501248Y-67869027D01*
X74431783Y-67626843D01*
X73908338Y-67440096D01*
X73353272Y-67467878D01*
X72969497Y-67626843D01*
X72900032Y-67869027D01*
X72156072Y-67869027D01*
X71953010Y-67665611D01*
X71439740Y-67452483D01*
X70883979Y-67451998D01*
X70370337Y-67664230D01*
X69977011Y-68056870D01*
X69763883Y-68570140D01*
X69763398Y-69125901D01*
X61943329Y-69125901D01*
X61889340Y-69103483D01*
X61333579Y-69102998D01*
X60819937Y-69315230D01*
X60426611Y-69707870D01*
X60340291Y-69915752D01*
X60255250Y-69709937D01*
X59862610Y-69316611D01*
X59349340Y-69103483D01*
X58793579Y-69102998D01*
X58279937Y-69315230D01*
X57886611Y-69707870D01*
X57800291Y-69915752D01*
X57715250Y-69709937D01*
X57322610Y-69316611D01*
X56809340Y-69103483D01*
X56253579Y-69102998D01*
X55739937Y-69315230D01*
X55346611Y-69707870D01*
X55260291Y-69915752D01*
X55175250Y-69709937D01*
X54782610Y-69316611D01*
X54269340Y-69103483D01*
X53713579Y-69102998D01*
X53199937Y-69315230D01*
X52821840Y-69692668D01*
X52821840Y-67172613D01*
X64192912Y-67172613D01*
X64262377Y-67414797D01*
X64785822Y-67601544D01*
X65340888Y-67573762D01*
X65724663Y-67414797D01*
X65794128Y-67172613D01*
X64993520Y-66372005D01*
X64192912Y-67172613D01*
X52821840Y-67172613D01*
X52821840Y-65984702D01*
X63584376Y-65984702D01*
X63612158Y-66539768D01*
X63771123Y-66923543D01*
X64013307Y-66993008D01*
X64813915Y-66192400D01*
X65173125Y-66192400D01*
X65973733Y-66993008D01*
X66215917Y-66923543D01*
X66266029Y-66783082D01*
X66348510Y-66982703D01*
X66741150Y-67376029D01*
X67254420Y-67589157D01*
X67810181Y-67589642D01*
X68323823Y-67377410D01*
X68717149Y-66984770D01*
X68930277Y-66471500D01*
X68930762Y-65915739D01*
X68718530Y-65402097D01*
X68325890Y-65008771D01*
X67812620Y-64795643D01*
X67256859Y-64795158D01*
X66743217Y-65007390D01*
X66349891Y-65400030D01*
X66270125Y-65592127D01*
X66215917Y-65461257D01*
X65973733Y-65391792D01*
X65173125Y-66192400D01*
X64813915Y-66192400D01*
X64013307Y-65391792D01*
X63771123Y-65461257D01*
X63584376Y-65984702D01*
X52821840Y-65984702D01*
X52821840Y-65212187D01*
X64192912Y-65212187D01*
X64993520Y-66012795D01*
X65794128Y-65212187D01*
X65724663Y-64970003D01*
X65201218Y-64783256D01*
X64646152Y-64811038D01*
X64262377Y-64970003D01*
X64192912Y-65212187D01*
X52821840Y-65212187D01*
X52821840Y-63634421D01*
X65999118Y-63634421D01*
X66211350Y-64148063D01*
X66603990Y-64541389D01*
X67117260Y-64754517D01*
X67673021Y-64755002D01*
X68186663Y-64542770D01*
X68579989Y-64150130D01*
X68666309Y-63942248D01*
X68751350Y-64148063D01*
X69143990Y-64541389D01*
X69657260Y-64754517D01*
X70213021Y-64755002D01*
X70726663Y-64542770D01*
X70931817Y-64337973D01*
X71675752Y-64337973D01*
X71745217Y-64580157D01*
X72268662Y-64766904D01*
X72823728Y-64739122D01*
X73207503Y-64580157D01*
X73276968Y-64337973D01*
X72476360Y-63537365D01*
X71675752Y-64337973D01*
X70931817Y-64337973D01*
X71119989Y-64150130D01*
X71199755Y-63958033D01*
X71253963Y-64088903D01*
X71496147Y-64158368D01*
X72296755Y-63357760D01*
X72655965Y-63357760D01*
X73456573Y-64158368D01*
X73698757Y-64088903D01*
X73785697Y-63845213D01*
X83334352Y-63845213D01*
X83403817Y-64087397D01*
X83927262Y-64274144D01*
X84482328Y-64246362D01*
X84866103Y-64087397D01*
X84935568Y-63845213D01*
X84134960Y-63044605D01*
X83334352Y-63845213D01*
X73785697Y-63845213D01*
X73885504Y-63565458D01*
X73857722Y-63010392D01*
X73711468Y-62657302D01*
X82725816Y-62657302D01*
X82753598Y-63212368D01*
X82912563Y-63596143D01*
X83154747Y-63665608D01*
X83955355Y-62865000D01*
X83154747Y-62064392D01*
X82912563Y-62133857D01*
X82725816Y-62657302D01*
X73711468Y-62657302D01*
X73698757Y-62626617D01*
X73456573Y-62557152D01*
X72655965Y-63357760D01*
X72296755Y-63357760D01*
X71496147Y-62557152D01*
X71253963Y-62626617D01*
X71203851Y-62767078D01*
X71121370Y-62567457D01*
X70931792Y-62377547D01*
X71675752Y-62377547D01*
X72476360Y-63178155D01*
X73276968Y-62377547D01*
X73207503Y-62135363D01*
X72684058Y-61948616D01*
X72128992Y-61976398D01*
X71745217Y-62135363D01*
X71675752Y-62377547D01*
X70931792Y-62377547D01*
X70728730Y-62174131D01*
X70215460Y-61961003D01*
X69659699Y-61960518D01*
X69146057Y-62172750D01*
X68752731Y-62565390D01*
X68666411Y-62773272D01*
X68581370Y-62567457D01*
X68188730Y-62174131D01*
X67675460Y-61961003D01*
X67119699Y-61960518D01*
X66606057Y-62172750D01*
X66212731Y-62565390D01*
X65999603Y-63078660D01*
X65999118Y-63634421D01*
X52821840Y-63634421D01*
X52821840Y-61594773D01*
X74540872Y-61594773D01*
X74610337Y-61836957D01*
X75133782Y-62023704D01*
X75688848Y-61995922D01*
X76072623Y-61836957D01*
X76142088Y-61594773D01*
X75341480Y-60794165D01*
X74540872Y-61594773D01*
X52821840Y-61594773D01*
X52821840Y-60406862D01*
X73932336Y-60406862D01*
X73960118Y-60961928D01*
X74119083Y-61345703D01*
X74361267Y-61415168D01*
X75161875Y-60614560D01*
X75521085Y-60614560D01*
X76321693Y-61415168D01*
X76563877Y-61345703D01*
X76613989Y-61205242D01*
X76696470Y-61404863D01*
X77089110Y-61798189D01*
X77602380Y-62011317D01*
X78158141Y-62011802D01*
X78465541Y-61884787D01*
X83334352Y-61884787D01*
X84134960Y-62685395D01*
X84935568Y-61884787D01*
X84866103Y-61642603D01*
X84342658Y-61455856D01*
X83787592Y-61483638D01*
X83403817Y-61642603D01*
X83334352Y-61884787D01*
X78465541Y-61884787D01*
X78671783Y-61799570D01*
X79065109Y-61406930D01*
X79278237Y-60893660D01*
X79278722Y-60337899D01*
X79066490Y-59824257D01*
X78673850Y-59430931D01*
X78160580Y-59217803D01*
X77604819Y-59217318D01*
X77091177Y-59429550D01*
X76697851Y-59822190D01*
X76618085Y-60014287D01*
X76563877Y-59883417D01*
X76321693Y-59813952D01*
X75521085Y-60614560D01*
X75161875Y-60614560D01*
X74361267Y-59813952D01*
X74119083Y-59883417D01*
X73932336Y-60406862D01*
X52821840Y-60406862D01*
X52821840Y-59634347D01*
X74540872Y-59634347D01*
X75341480Y-60434955D01*
X76142088Y-59634347D01*
X76072623Y-59392163D01*
X75549178Y-59205416D01*
X74994112Y-59233198D01*
X74610337Y-59392163D01*
X74540872Y-59634347D01*
X52821840Y-59634347D01*
X52821840Y-53700453D01*
X53189632Y-53700453D01*
X53259097Y-53942637D01*
X53782542Y-54129384D01*
X54337608Y-54101602D01*
X54721383Y-53942637D01*
X54790848Y-53700453D01*
X53990240Y-52899845D01*
X53189632Y-53700453D01*
X52821840Y-53700453D01*
X52821840Y-53466871D01*
X53010027Y-53520848D01*
X53810635Y-52720240D01*
X53010027Y-51919632D01*
X52821840Y-51973609D01*
X52821840Y-51346640D01*
X53624133Y-51346640D01*
X53259097Y-51497843D01*
M02*
