M48
METRIC,TZ
T1C0.762
T2C0.800
T3C1.520
%
G90
G05
T1
X48.91Y-52.72
X48.91Y-70.5
X51.45Y-52.72
X51.45Y-70.5
X53.99Y-52.72
X53.99Y-70.5
X56.53Y-52.72
X56.53Y-70.5
X59.07Y-52.72
X59.07Y-70.5
X61.61Y-52.72
X61.61Y-70.5
X64.994Y-66.192
X67.396Y-63.358
X67.534Y-66.192
X69.936Y-63.358
X71.161Y-53.609
X71.161Y-68.849
X72.476Y-63.358
X73.701Y-53.609
X73.701Y-68.849
X75.341Y-60.615
X76.241Y-53.609
X76.241Y-68.849
X76.363Y-57.475
X77.881Y-60.615
X78.781Y-53.609
X78.781Y-68.849
X78.903Y-57.475
X81.321Y-53.609
X81.321Y-68.849
X81.443Y-57.475
X83.861Y-53.609
X83.861Y-68.849
X86.401Y-53.609
X86.401Y-68.849
X88.941Y-53.609
X88.941Y-68.849
X91.481Y-53.609
X91.481Y-68.849
X94.021Y-53.609
X94.021Y-68.849
X96.561Y-53.609
X96.561Y-68.849
X99.101Y-53.609
X99.101Y-68.849
X101.641Y-53.609
X101.641Y-68.849
X104.181Y-53.609
X104.181Y-68.849
X106.721Y-53.609
X106.721Y-68.849
T2
X38.532Y-44.145
X41.072Y-44.145
X47.884Y-42.733
X47.889Y-36.21
X49.185Y-27.823
X49.185Y-30.363
X50.424Y-40.193
X50.429Y-36.21
X52.004Y-27.823
X52.004Y-30.363
X52.964Y-42.733
X52.969Y-36.21
X63.322Y-27.864
X63.322Y-30.404
X63.424Y-36.434
X63.647Y-43.028
X65.964Y-36.434
X66.187Y-40.488
X66.248Y-27.833
X66.248Y-30.373
X68.504Y-36.434
X68.727Y-43.028
X69.174Y-27.818
X69.174Y-30.358
X78.044Y-27.833
X78.044Y-30.373
X78.344Y-42.86
X78.567Y-36.49
X80.884Y-40.32
X81.107Y-36.49
X81.123Y-27.833
X81.123Y-30.373
X83.424Y-42.86
X83.647Y-36.49
X84.135Y-62.865
X84.338Y-27.849
X84.338Y-30.389
X86.675Y-65.405
X89.215Y-62.865
X95.159Y-27.838
X95.159Y-30.378
X95.722Y-43.028
X95.834Y-36.434
X98.262Y-40.488
X98.374Y-36.434
X98.471Y-27.879
X98.471Y-30.419
X100.802Y-43.028
X100.914Y-36.434
X101.519Y-27.859
X101.519Y-30.399
T3
X38.562Y-27.076
X38.562Y-32.156
T0
M30
