G04 #@! TF.FileFunction,Soldermask,Top*
%FSLAX46Y46*%
G04 Gerber Fmt 4.6, Leading zero omitted, Abs format (unit mm)*
G04 Created by KiCad (PCBNEW 4.0.5+dfsg1-4) date Wed Oct 25 15:58:38 2017*
%MOMM*%
%LPD*%
G01*
G04 APERTURE LIST*
%ADD10C,0.100000*%
%ADD11C,2.200000*%
%ADD12R,2.200000X2.200000*%
%ADD13C,1.924000*%
%ADD14R,2.100000X1.300000*%
%ADD15C,2.300000*%
%ADD16C,3.400000*%
%ADD17C,3.500000*%
G04 APERTURE END LIST*
D10*
D11*
X49184560Y-27823160D03*
D12*
X49184560Y-30363160D03*
D13*
X64993520Y-66192400D03*
X67533520Y-66192400D03*
X75341480Y-60614560D03*
X77881480Y-60614560D03*
D11*
X52003960Y-27823160D03*
D12*
X52003960Y-30363160D03*
D11*
X38531800Y-44145200D03*
D12*
X41071800Y-44145200D03*
D11*
X95158560Y-27838400D03*
D12*
X95158560Y-30378400D03*
D11*
X98470720Y-27879040D03*
D12*
X98470720Y-30419040D03*
D11*
X101518720Y-27858720D03*
D12*
X101518720Y-30398720D03*
D11*
X78044040Y-27833320D03*
D12*
X78044040Y-30373320D03*
D11*
X81122520Y-27833320D03*
D12*
X81122520Y-30373320D03*
D11*
X84338160Y-27848560D03*
D12*
X84338160Y-30388560D03*
D11*
X63322200Y-27863800D03*
D12*
X63322200Y-30403800D03*
D11*
X69174360Y-27818080D03*
D12*
X69174360Y-30358080D03*
D11*
X66248280Y-27833320D03*
D12*
X66248280Y-30373320D03*
D13*
X72476360Y-63357760D03*
X69936360Y-63357760D03*
X67396360Y-63357760D03*
X81442560Y-57475120D03*
X78902560Y-57475120D03*
X76362560Y-57475120D03*
X50424080Y-40192960D03*
X52964080Y-42732960D03*
X47884080Y-42732960D03*
X98262440Y-40487600D03*
X100802440Y-43027600D03*
X95722440Y-43027600D03*
X80883760Y-40319960D03*
X83423760Y-42859960D03*
X78343760Y-42859960D03*
X66187320Y-40487600D03*
X68727320Y-43027600D03*
X63647320Y-43027600D03*
D14*
X50332640Y-45682240D03*
X50332640Y-48582240D03*
X45151040Y-28176560D03*
X45151040Y-31076560D03*
X43987720Y-34816120D03*
X43987720Y-37716120D03*
X42224960Y-28217200D03*
X42224960Y-31117200D03*
X98267520Y-45966720D03*
X98267520Y-48866720D03*
X90586560Y-27963200D03*
X90586560Y-30863200D03*
X90749120Y-34760240D03*
X90749120Y-37660240D03*
X80970120Y-45712720D03*
X80970120Y-48612720D03*
X73731120Y-28191800D03*
X73731120Y-31091800D03*
X74264520Y-34872000D03*
X74264520Y-37772000D03*
X66106040Y-46215640D03*
X66106040Y-49115640D03*
X58816240Y-28212120D03*
X58816240Y-31112120D03*
X58826400Y-34475760D03*
X58826400Y-37375760D03*
D13*
X106720640Y-53609240D03*
X104180640Y-53609240D03*
X101640640Y-53609240D03*
X99100640Y-53609240D03*
X96560640Y-53609240D03*
X94020640Y-53609240D03*
X91480640Y-53609240D03*
X88940640Y-53609240D03*
X86400640Y-53609240D03*
X83860640Y-53609240D03*
X81320640Y-53609240D03*
X78780640Y-53609240D03*
X76240640Y-53609240D03*
X73700640Y-53609240D03*
X71160640Y-53609240D03*
X106720640Y-68849240D03*
X104180640Y-68849240D03*
X101640640Y-68849240D03*
X99100640Y-68849240D03*
X96560640Y-68849240D03*
X94020640Y-68849240D03*
X91480640Y-68849240D03*
X88940640Y-68849240D03*
X86400640Y-68849240D03*
X83860640Y-68849240D03*
X81320640Y-68849240D03*
X78780640Y-68849240D03*
X76240640Y-68849240D03*
X73700640Y-68849240D03*
X71160640Y-68849240D03*
D15*
X47889160Y-36210240D03*
X50429160Y-36210240D03*
X52969160Y-36210240D03*
D13*
X86674960Y-65405000D03*
X84134960Y-62865000D03*
X89214960Y-62865000D03*
D15*
X95834200Y-36433760D03*
X98374200Y-36433760D03*
X100914200Y-36433760D03*
D13*
X48910240Y-70500240D03*
X51450240Y-70500240D03*
X53990240Y-70500240D03*
X56530240Y-70500240D03*
X59070240Y-70500240D03*
X61610240Y-70500240D03*
X48910240Y-52720240D03*
X51450240Y-52720240D03*
X53990240Y-52720240D03*
X56530240Y-52720240D03*
X59070240Y-52720240D03*
X61610240Y-52720240D03*
D15*
X78567280Y-36489640D03*
X81107280Y-36489640D03*
X83647280Y-36489640D03*
X63423800Y-36433760D03*
X65963800Y-36433760D03*
X68503800Y-36433760D03*
D16*
X38562280Y-27076400D03*
X38562280Y-32156400D03*
D17*
X39547800Y-61635640D03*
X108244640Y-36184840D03*
M02*
