G04 #@! TF.FileFunction,Copper,L2,Bot,Signal*
%FSLAX46Y46*%
G04 Gerber Fmt 4.6, Leading zero omitted, Abs format (unit mm)*
G04 Created by KiCad (PCBNEW 4.0.5+dfsg1-4) date Wed Oct 18 18:42:54 2017*
%MOMM*%
%LPD*%
G01*
G04 APERTURE LIST*
%ADD10C,0.100000*%
%ADD11C,1.524000*%
%ADD12C,1.800000*%
%ADD13R,1.800000X1.800000*%
%ADD14R,3.000000X3.000000*%
%ADD15C,3.000000*%
%ADD16C,1.900000*%
%ADD17C,0.250000*%
G04 APERTURE END LIST*
D10*
D11*
X209804000Y-55372000D03*
X207264000Y-55372000D03*
X204724000Y-55372000D03*
X202184000Y-55372000D03*
X199644000Y-55372000D03*
X197104000Y-55372000D03*
X194564000Y-55372000D03*
X192024000Y-55372000D03*
X189484000Y-55372000D03*
X186944000Y-55372000D03*
X184404000Y-55372000D03*
X181864000Y-55372000D03*
X179324000Y-55372000D03*
X176784000Y-55372000D03*
X174244000Y-55372000D03*
X209804000Y-65532000D03*
X207264000Y-65532000D03*
X204724000Y-65532000D03*
X202184000Y-65532000D03*
X199644000Y-65532000D03*
X197104000Y-65532000D03*
X194564000Y-65532000D03*
X192024000Y-65532000D03*
X189484000Y-65532000D03*
X186944000Y-65532000D03*
X184404000Y-65532000D03*
X181864000Y-65532000D03*
X179324000Y-65532000D03*
X176784000Y-65532000D03*
X174244000Y-65532000D03*
D12*
X162052000Y-28448000D03*
D13*
X162052000Y-30988000D03*
D12*
X202184000Y-28448000D03*
D13*
X202184000Y-30988000D03*
D12*
X188468000Y-28448000D03*
D13*
X188468000Y-30988000D03*
D12*
X175260000Y-28448000D03*
D13*
X175260000Y-30988000D03*
D12*
X147828000Y-42672000D03*
D13*
X145288000Y-42672000D03*
D14*
X146304000Y-28956000D03*
D15*
X146304000Y-34036000D03*
D11*
X162052000Y-42672000D03*
X164592000Y-45212000D03*
X159512000Y-45212000D03*
X202184000Y-42672000D03*
X204724000Y-45212000D03*
X199644000Y-45212000D03*
X188468000Y-42672000D03*
X191008000Y-45212000D03*
X185928000Y-45212000D03*
X175260000Y-42672000D03*
X177800000Y-45212000D03*
X172720000Y-45212000D03*
D16*
X159512000Y-38608000D03*
X162052000Y-38608000D03*
X164592000Y-38608000D03*
X199644000Y-38608000D03*
X202184000Y-38608000D03*
X204724000Y-38608000D03*
X185928000Y-38608000D03*
X188468000Y-38608000D03*
X191008000Y-38608000D03*
X172720000Y-38608000D03*
X175260000Y-38608000D03*
X177800000Y-38608000D03*
D11*
X155194000Y-70358000D03*
X157734000Y-70358000D03*
X160274000Y-70358000D03*
X162814000Y-70358000D03*
X165354000Y-70358000D03*
X167894000Y-70358000D03*
X155194000Y-53848000D03*
X157734000Y-53848000D03*
X160274000Y-53848000D03*
X162814000Y-53848000D03*
X165354000Y-53848000D03*
X167894000Y-53848000D03*
X202184000Y-72136000D03*
X199644000Y-69596000D03*
X204724000Y-69596000D03*
X171958000Y-70866000D03*
X174498000Y-70866000D03*
X185674000Y-70866000D03*
X188214000Y-70866000D03*
X177800000Y-70612000D03*
X180340000Y-70612000D03*
X182880000Y-70612000D03*
X191516000Y-70612000D03*
X194056000Y-70612000D03*
X196596000Y-70612000D03*
D17*
X162814000Y-70358000D02*
X162814000Y-71374000D01*
X212344000Y-57912000D02*
X209804000Y-55372000D01*
X212344000Y-70104000D02*
X212344000Y-57912000D01*
X208280000Y-74168000D02*
X212344000Y-70104000D01*
X165608000Y-74168000D02*
X208280000Y-74168000D01*
X162814000Y-71374000D02*
X165608000Y-74168000D01*
X165354000Y-53848000D02*
X165354000Y-53594000D01*
X165354000Y-53594000D02*
X167132000Y-51816000D01*
X167132000Y-51816000D02*
X168656000Y-51816000D01*
X168656000Y-51816000D02*
X169672000Y-52832000D01*
X169672000Y-52832000D02*
X179324000Y-52832000D01*
X179324000Y-52832000D02*
X181864000Y-55372000D01*
X165354000Y-70358000D02*
X165354000Y-66802000D01*
X165354000Y-66802000D02*
X176784000Y-55372000D01*
X202184000Y-72136000D02*
X202184000Y-68072000D01*
X194056000Y-67564000D02*
X192024000Y-65532000D01*
X201676000Y-67564000D02*
X194056000Y-67564000D01*
X202184000Y-68072000D02*
X201676000Y-67564000D01*
X194056000Y-70612000D02*
X194056000Y-70104000D01*
X194056000Y-70104000D02*
X189484000Y-65532000D01*
X188214000Y-70866000D02*
X188214000Y-66802000D01*
X188214000Y-66802000D02*
X186944000Y-65532000D01*
X180340000Y-70612000D02*
X180340000Y-69596000D01*
X180340000Y-69596000D02*
X184404000Y-65532000D01*
X175006000Y-70866000D02*
X176530000Y-70866000D01*
X176530000Y-70866000D02*
X181864000Y-65532000D01*
X196850000Y-70866000D02*
X196850000Y-70358000D01*
X207264000Y-65532000D02*
X207264000Y-60452000D01*
X207264000Y-60452000D02*
X202184000Y-55372000D01*
M02*
