M48
METRIC,TZ
T1C0.762
T2C0.800
T3C1.000
T4C1.520
%
G90
G05
T1
X155.194Y-53.848
X155.194Y-70.358
X157.734Y-53.848
X157.734Y-70.358
X160.274Y-53.848
X160.274Y-70.358
X162.814Y-53.848
X162.814Y-70.358
X165.354Y-53.848
X165.354Y-70.358
X167.894Y-53.848
X167.894Y-70.358
X171.958Y-70.866
X174.244Y-55.372
X174.244Y-65.532
X174.498Y-70.866
X176.784Y-55.372
X176.784Y-65.532
X177.8Y-70.612
X179.324Y-55.372
X179.324Y-65.532
X180.34Y-70.612
X181.864Y-55.372
X181.864Y-65.532
X182.88Y-70.612
X184.404Y-55.372
X184.404Y-65.532
X185.674Y-70.866
X186.944Y-55.372
X186.944Y-65.532
X188.214Y-70.866
X189.484Y-55.372
X189.484Y-65.532
X191.516Y-70.612
X192.024Y-55.372
X192.024Y-65.532
X194.056Y-70.612
X194.564Y-55.372
X194.564Y-65.532
X196.596Y-70.612
X197.104Y-55.372
X197.104Y-65.532
X199.644Y-55.372
X199.644Y-65.532
X202.184Y-55.372
X202.184Y-65.532
X204.724Y-55.372
X204.724Y-65.532
X207.264Y-55.372
X207.264Y-65.532
X209.804Y-55.372
X209.804Y-65.532
T2
X145.288Y-42.672
X147.828Y-42.672
X159.512Y-38.608
X159.512Y-45.212
X162.052Y-28.448
X162.052Y-30.988
X162.052Y-38.608
X162.052Y-42.672
X164.592Y-38.608
X164.592Y-45.212
X172.72Y-38.608
X172.72Y-45.212
X175.26Y-28.448
X175.26Y-30.988
X175.26Y-38.608
X175.26Y-42.672
X177.8Y-38.608
X177.8Y-45.212
X185.928Y-38.608
X185.928Y-45.212
X188.468Y-28.448
X188.468Y-30.988
X188.468Y-38.608
X188.468Y-42.672
X191.008Y-38.608
X191.008Y-45.212
X199.644Y-38.608
X199.644Y-45.212
X199.644Y-69.596
X202.184Y-30.988
X202.184Y-38.608
X202.184Y-42.672
X202.184Y-72.136
X204.724Y-38.608
X204.724Y-45.212
X204.724Y-69.596
T3
X202.184Y-28.448
T4
X146.304Y-28.956
X146.304Y-34.036
T0
M30
